<?xml version="1.0" standalone="no"?>
<!DOCTYPE svg PUBLIC "-//W3C//DTD SVG 20010904//EN"
 "http://www.w3.org/TR/2001/REC-SVG-20010904/DTD/svg10.dtd">
<svg version="1.0" xmlns="http://www.w3.org/2000/svg"
 width="225.000000pt" height="225.000000pt" viewBox="0 0 225.000000 225.000000"
 preserveAspectRatio="xMidYMid meet">

<g transform="translate(0.000000,225.000000) scale(0.100000,-0.100000)"
fill="#000000" stroke="none">
<path d="M1257 1626 l16 -35 120 -3 120 -3 19 30 c10 17 18 33 18 38 0 13 -51
7 -66 -8 -9 -8 -19 -15 -24 -15 -5 0 -15 7 -24 15 -8 8 -26 15 -39 15 -14 0
-30 -7 -37 -15 -7 -8 -18 -15 -25 -15 -7 0 -18 7 -25 15 -7 8 -25 15 -41 15
l-29 0 17 -34z"/>
<path d="M385 1556 c-42 -18 -83 -69 -91 -112 -14 -78 44 -165 120 -180 32 -6
36 -10 46 -57 5 -29 17 -84 26 -124 l16 -72 21 19 c11 11 27 20 34 20 25 0 24
48 -7 170 -21 84 -29 137 -25 163 7 45 -5 48 -25 4 -21 -44 -68 -50 -99 -11
-11 15 -21 33 -21 41 0 23 47 63 73 63 14 0 27 7 30 15 4 8 21 18 39 23 l33 8
-28 18 c-36 24 -104 30 -142 12z"/>
<path d="M1233 1562 l-43 -3 0 -45 c0 -41 11 -57 25 -34 12 19 53 10 74 -17
25 -31 21 -39 -10 -22 -15 8 -49 10 -106 6 -92 -7 -132 3 -140 33 -7 28 -21
25 -29 -5 -9 -37 18 -73 63 -81 27 -5 56 -1 103 15 80 28 124 25 128 -6 4 -31
-39 -42 -73 -19 l-25 16 0 -41 0 -42 86 7 c141 12 204 50 204 122 0 27 -4 34
-19 34 -11 0 -23 5 -26 10 -3 6 3 10 13 10 26 0 34 23 17 47 -11 15 -30 19
-102 21 -63 2 -84 0 -73 -7 8 -6 26 -11 40 -11 14 0 32 -5 40 -10 12 -8 9 -10
-12 -10 -16 0 -28 -4 -28 -10 0 -21 -37 -9 -51 18 -12 24 -19 27 -56 24z"/>
<path d="M577 1516 c-9 -9 -22 -16 -29 -16 -21 0 -58 -30 -58 -46 0 -9 6 -14
13 -11 31 11 47 -13 47 -69 0 -42 7 -69 31 -115 29 -56 30 -61 15 -78 -18 -20
-13 -46 12 -57 9 -4 83 -10 164 -13 130 -5 150 -8 176 -28 27 -20 31 -20 51
-7 11 8 21 22 21 31 0 35 55 114 99 144 l46 31 -155 -8 c-85 -5 -186 -9 -225
-9 l-70 0 -14 43 c-13 42 -13 43 23 82 39 43 42 56 25 94 -14 30 -28 36 -100
42 -43 4 -60 1 -72 -10z m58 -37 c4 -5 4 -22 0 -37 l-7 -27 -13 31 c-7 18 -18
35 -24 38 -6 4 -9 12 -6 17 7 10 40 -4 50 -22z m69 15 c19 -18 19 -20 6 -45
-12 -22 -35 -26 -26 -4 3 8 1 26 -4 40 -11 29 1 33 24 9z"/>
<path d="M1503 1505 c-7 -17 -8 -27 -1 -31 15 -10 2 -83 -19 -106 -29 -32 -70
-49 -190 -79 -124 -30 -173 -57 -214 -119 -65 -97 -35 -231 63 -281 l43 -21
-27 28 c-65 70 -65 178 0 247 35 37 56 48 181 91 58 20 119 46 137 56 47 30
67 79 62 156 -5 73 -17 95 -35 59z"/>
<path d="M1751 1504 c-28 -35 -26 -63 4 -104 14 -19 25 -41 25 -51 0 -9 9 -28
21 -43 20 -26 21 -26 49 -9 l28 16 -21 29 c-30 41 -29 99 3 133 24 26 25 27 6
41 -34 24 -91 18 -115 -12z"/>
<path d="M1943 1518 l-22 -11 24 -29 c29 -34 33 -87 9 -123 -8 -13 -41 -43
-72 -66 -146 -110 -187 -168 -180 -260 5 -65 37 -118 91 -146 34 -18 116 -23
157 -10 24 8 25 8 5 -9 -40 -33 -89 -47 -165 -47 -41 0 -87 5 -101 11 -51 20
-97 71 -115 125 -9 29 -18 54 -20 55 -1 2 -34 -13 -72 -33 -105 -55 -113 -84
-51 -200 24 -47 44 -101 50 -138 20 -120 56 -147 198 -147 l90 0 7 -37 c4 -21
8 -58 8 -83 l1 -45 -49 0 c-48 0 -50 2 -70 40 -16 30 -28 41 -50 43 -48 6 -75
-6 -82 -36 -4 -15 -13 -34 -21 -44 -11 -12 -13 -33 -10 -77 6 -66 10 -76 36
-90 14 -8 17 -6 17 11 -2 38 27 44 82 19 l50 -24 65 24 c72 26 112 19 119 -20
3 -18 6 -19 28 -8 13 7 30 24 37 37 14 28 16 190 4 310 -7 74 -7 75 21 102 28
26 33 43 22 72 -5 14 -8 14 -31 -1 -27 -18 -151 -29 -206 -19 -28 5 -38 13
-46 38 -6 17 -19 40 -28 51 -17 18 -17 19 22 10 156 -32 320 38 376 160 22 50
25 153 5 200 -13 33 -90 107 -110 107 -16 -1 -63 -40 -49 -40 26 0 93 -72 103
-111 25 -93 -70 -180 -163 -149 -59 19 -82 53 -82 121 0 59 1 61 50 107 28 26
78 68 113 95 38 29 69 62 80 85 9 20 27 50 39 65 30 37 29 72 -2 102 -26 27
-72 32 -112 13z m-325 -1177 c3 -10 0 -10 -16 -2 -11 6 -31 11 -44 11 -22 1
-22 1 -4 15 17 13 23 13 40 2 11 -8 22 -19 24 -26z m-20 -53 c19 -19 14 -23
-33 -23 -41 0 -56 11 -38 28 11 11 58 8 71 -5z"/>
<path d="M1561 1472 c19 -80 -13 -164 -79 -209 -18 -12 -83 -38 -144 -59 -86
-28 -121 -46 -152 -74 -37 -35 -40 -42 -44 -101 -3 -55 0 -69 20 -98 13 -19
38 -44 57 -55 l34 -20 -22 30 c-50 68 -32 170 37 217 20 13 82 42 137 63 111
44 158 81 174 141 14 48 14 108 1 155 -14 49 -30 58 -19 10z"/>
<path d="M1610 1385 c-1 -130 -44 -184 -190 -240 -121 -46 -154 -67 -175 -112
-29 -60 -6 -146 46 -173 19 -10 20 -10 10 9 -6 11 -11 38 -11 61 0 66 28 95
152 155 124 60 141 74 171 130 17 31 22 57 22 120 -1 44 -6 89 -13 100 -9 17
-11 9 -12 -50z"/>
<path d="M1661 1325 c-3 -127 -46 -182 -203 -261 -67 -34 -114 -64 -125 -81
-25 -37 -21 -98 7 -129 32 -33 36 -31 32 16 -6 58 16 84 108 130 96 48 142 87
170 144 24 50 35 157 21 201 -9 28 -9 27 -10 -20z"/>
<path d="M365 1239 c-7 -23 -255 -1071 -255 -1082 0 -5 19 6 42 25 l41 34 59
250 c46 197 63 252 79 265 16 12 31 60 68 215 39 168 45 206 38 244 -11 53 -6
47 -39 55 -19 5 -29 3 -33 -6z"/>
<path d="M602 1053 c-10 -10 -32 -25 -48 -33 -21 -11 -30 -24 -32 -47 -2 -17
-10 -37 -18 -43 -18 -16 -18 -64 0 -79 11 -9 15 -7 19 9 8 31 39 24 82 -21 22
-22 57 -50 78 -62 41 -23 57 -58 37 -82 -10 -12 -9 -16 4 -21 32 -12 67 7 146
82 85 79 138 109 171 99 13 -4 28 0 39 10 19 17 18 19 -16 58 -20 25 -37 57
-41 79 -3 21 -9 40 -13 43 -10 6 -75 -40 -151 -107 -37 -32 -76 -58 -87 -58
-11 0 -30 12 -42 27 -17 21 -19 35 -14 69 5 37 3 46 -19 68 -30 30 -69 33 -95
9z m58 -33 c7 -14 8 -26 1 -38 -6 -10 -11 -12 -11 -4 0 7 -12 24 -26 37 l-27
25 26 0 c16 0 30 -8 37 -20z m-62 -52 c7 -7 12 -19 12 -27 0 -12 -3 -12 -12
-3 -7 7 -25 12 -40 12 -44 0 -32 27 13 29 8 1 20 -4 27 -11z"/>
<path d="M540 843 c1 -42 20 -98 40 -113 17 -12 32 -65 78 -263 32 -136 64
-252 71 -259 11 -11 12 -3 7 42 -4 37 -1 63 7 78 12 20 7 50 -34 229 -40 174
-51 208 -71 221 -13 9 -37 31 -54 49 -34 37 -44 41 -44 16z"/>
<path d="M1255 813 c-16 -2 -57 -8 -90 -14 -129 -24 -142 -47 -125 -231 6 -68
10 -150 8 -183 l-3 -60 -46 -3 c-46 -3 -47 -2 -71 40 -20 38 -28 43 -62 46
-40 4 -76 -18 -76 -46 0 -9 -7 -23 -16 -33 -25 -28 -7 -146 25 -168 20 -13 23
-13 19 -1 -8 22 10 50 32 50 10 0 35 -10 56 -22 l36 -21 69 23 c56 20 72 22
93 12 15 -7 26 -20 26 -31 0 -26 34 -17 60 17 18 22 20 40 20 158 0 124 1 134
18 134 23 0 52 30 52 54 0 12 -5 16 -19 11 -24 -7 -53 21 -49 49 3 19 10 21
91 24 77 2 87 5 77 17 -8 9 -10 28 -6 46 4 23 -1 44 -21 80 -14 27 -30 49 -34
49 -4 0 -13 2 -21 3 -7 2 -26 2 -43 0z m-377 -466 c3 -16 1 -17 -16 -8 -12 6
-30 11 -42 11 -12 0 -18 4 -15 11 11 17 69 6 73 -14z m-20 -59 c19 -19 14 -23
-33 -23 -25 0 -45 2 -45 6 0 12 26 29 45 29 12 0 26 -5 33 -12z"/>
<path d="M1386 754 c23 -39 25 -50 15 -66 -6 -11 -9 -28 -6 -39 6 -19 50 -37
62 -25 10 10 -17 87 -45 133 -38 60 -61 57 -26 -3z"/>
</g>
</svg>
