<?xml version="1.0" standalone="no"?>
<!DOCTYPE svg PUBLIC "-//W3C//DTD SVG 20010904//EN"
 "http://www.w3.org/TR/2001/REC-SVG-20010904/DTD/svg10.dtd">
<svg version="1.0" xmlns="http://www.w3.org/2000/svg"
 width="709.000000pt" height="709.000000pt" viewBox="0 0 709.000000 709.000000"
 preserveAspectRatio="xMidYMid meet">

<g transform="translate(0.000000,709.000000) scale(0.100000,-0.100000)"
fill="#000000" stroke="none">
<path d="M3210 7069 c-1547 -152 -2821 -1295 -3130 -2807 -57 -280 -65 -368
-65 -717 0 -349 8 -437 65 -717 223 -1089 971 -2031 1980 -2494 513 -235 1002
-335 1575 -321 391 9 696 63 1057 186 1201 410 2107 1459 2332 2701 50 274 70
669 47 930 -75 856 -426 1616 -1026 2215 -557 557 -1248 899 -2045 1011 -137
19 -644 27 -790 13z m725 -65 c949 -102 1830 -607 2405 -1379 145 -195 221
-319 330 -540 177 -358 279 -688 336 -1087 21 -152 30 -608 15 -765 -84 -839
-449 -1601 -1045 -2180 -792 -770 -1852 -1117 -2931 -962 -941 135 -1789 656
-2345 1439 -336 474 -545 1024 -616 1620 -21 174 -24 559 -6 730 82 772 392
1461 913 2027 384 416 887 745 1422 929 314 108 606 163 987 188 98 6 391 -5
535 -20z"/>
<path d="M3462 6942 c-10 -7 -10 -15 -2 -36 16 -42 13 -131 -5 -146 -15 -12
-92 -8 -130 6 -12 5 -15 -4 -15 -45 0 -50 0 -50 26 -41 40 15 120 12 134 -5
12 -14 8 -88 -7 -152 -5 -22 -2 -23 51 -23 31 0 56 3 56 8 0 4 -4 23 -9 42
-32 125 -20 155 58 145 25 -4 54 -9 64 -12 14 -4 17 3 17 45 l0 49 -59 -16
c-54 -14 -60 -14 -86 3 -26 17 -27 20 -24 99 l4 82 -30 3 c-16 1 -36 -2 -43
-6z"/>
<path d="M3816 6816 l-58 -134 31 -140 c17 -77 31 -142 31 -144 0 -2 -120 -4
-267 -4 -278 0 -375 -8 -602 -55 -973 -198 -1791 -920 -2114 -1865 -327 -958
-126 -2020 529 -2783 381 -444 900 -765 1474 -911 417 -106 879 -119 1280 -35
710 148 1371 606 1794 1243 227 342 378 733 442 1147 24 152 27 646 6 790
-136 905 -637 1647 -1418 2101 -294 171 -638 288 -1026 349 -24 4 -38 11 -38
21 0 8 19 72 41 142 l42 128 -36 139 c-19 77 -39 141 -44 142 -5 2 -35 -57
-67 -131z m52 -141 c-6 -105 -14 -193 -18 -198 -3 -4 -14 44 -23 107 l-17 114
31 86 c17 48 33 86 35 84 2 -2 -2 -89 -8 -193z m-90 -312 c35 -4 42 -9 42 -28
l0 -22 -257 0 c-461 0 -749 -60 -1090 -227 -207 -102 -307 -164 -713 -446
-195 -135 -362 -250 -370 -255 -30 -18 71 93 175 193 552 532 1283 819 2025
796 80 -3 164 -7 188 -11z m258 -32 c257 -45 536 -136 756 -247 l71 -36 -63
-41 -63 -41 -16 24 c-35 55 -125 139 -180 169 -196 104 -414 72 -556 -81 -68
-73 -96 -144 -103 -258 -8 -162 36 -280 142 -377 l64 -58 -20 -52 c-23 -61
-88 -126 -183 -178 -80 -45 -89 -45 -80 3 5 25 23 54 59 92 56 59 73 98 56
131 -6 11 -8 29 -5 40 4 11 1 26 -5 34 -6 8 -9 23 -5 34 3 11 0 31 -6 43 -7
13 -12 33 -10 45 1 14 -7 28 -23 39 -29 18 -35 58 -11 68 19 7 19 33 0 43 -20
12 -9 253 12 253 7 0 13 11 13 25 0 14 -5 25 -11 25 -8 0 -10 31 -7 106 4 85
8 108 21 116 21 11 22 37 2 44 -8 4 -15 17 -15 30 0 30 19 31 166 5z m-328
-58 l83 -6 -28 -18 c-34 -23 -63 -74 -63 -112 0 -42 25 -93 55 -113 l26 -17
-36 -37 c-45 -46 -57 -88 -44 -151 7 -33 20 -56 39 -73 16 -13 26 -27 23 -30
-23 -23 -411 23 -416 49 -1 6 44 12 113 15 115 5 115 5 115 30 0 20 -6 26 -27
28 -21 2 -35 15 -53 46 -41 70 -30 106 33 106 40 0 66 -12 111 -54 l34 -31 -8
30 c-4 17 -8 45 -9 64 -1 22 -10 40 -25 52 -28 23 -44 24 -76 3 -13 -8 -36
-14 -52 -12 -39 4 -40 34 -3 85 27 37 36 42 63 40 28 -2 32 1 35 25 4 37 -25
48 -128 48 -87 0 -110 5 -110 26 0 11 26 14 133 14 72 0 169 -3 215 -7z m-396
-25 c14 -21 25 -23 112 -26 93 -4 95 -5 85 -24 -10 -19 -18 -20 -113 -16 -68
3 -112 10 -133 22 -18 9 -33 18 -33 20 0 3 -3 11 -6 19 -3 10 2 17 13 20 40
10 61 6 75 -15z m-120 -28 c31 -46 72 -59 186 -59 70 -1 93 -4 90 -13 -3 -9
-35 -14 -101 -16 -77 -2 -97 -6 -97 -17 0 -12 17 -15 82 -15 72 0 80 -2 68
-15 -10 -9 -41 -15 -96 -16 -89 -3 -124 11 -213 86 -46 38 -61 43 -61 21 0
-14 68 -74 109 -96 41 -21 5 -29 -96 -21 -108 9 -139 25 -149 76 -11 61 10 80
113 98 48 9 97 18 108 21 29 5 32 4 57 -34z m618 -72 c0 -109 -6 -125 -38
-102 -32 22 -47 83 -32 128 10 32 42 66 62 66 5 0 8 -42 8 -92z m-937 33 c-2
-10 5 -37 16 -59 25 -48 25 -52 8 -52 -15 0 -113 97 -106 104 8 9 53 25 71 25
11 1 15 -5 11 -18z m1576 -8 c65 -22 141 -73 185 -124 98 -115 130 -265 87
-407 -22 -75 -86 -159 -143 -188 -36 -19 -48 -11 -48 30 0 24 9 41 35 66 40
39 43 50 15 75 -20 18 -20 18 11 45 l32 26 -8 70 c-4 38 -7 83 -6 101 0 18 -4
35 -9 38 -6 3 -10 23 -11 43 -1 99 -47 142 -150 142 -53 0 -57 2 -63 26 -14
56 -126 64 -161 10 -11 -16 -32 -26 -81 -35 -80 -16 -121 -47 -129 -99 -3 -20
-13 -52 -21 -70 -18 -42 -18 -66 1 -82 10 -9 15 -32 15 -76 0 -35 5 -74 11
-88 9 -19 9 -29 0 -39 -26 -33 28 -77 93 -77 30 0 37 -4 42 -25 8 -34 57 -73
100 -81 32 -6 81 2 129 22 18 7 19 6 6 -10 -40 -48 -142 -61 -218 -27 -35 16
-42 17 -47 5 -15 -38 -130 68 -171 158 -76 166 -48 353 70 471 53 53 150 104
221 117 61 11 153 4 213 -17z m-1649 -65 c39 -22 70 -43 70 -46 0 -2 -52 -1
-115 3 -113 7 -145 1 -145 -26 0 -23 40 -27 131 -14 52 8 103 15 114 15 17 0
18 -2 5 -15 -8 -8 -41 -30 -73 -49 l-58 -35 -82 19 c-45 10 -120 24 -165 31
-57 8 -80 15 -70 21 48 33 282 136 311 138 4 0 39 -19 77 -42z m1534 16 c9 -8
16 -24 16 -33 0 -20 41 -31 116 -31 54 0 80 -29 87 -95 3 -27 7 -61 9 -75 3
-21 -1 -25 -22 -23 -289 22 -362 23 -427 8 -67 -16 -113 -14 -113 5 0 5 5 12
10 15 6 3 10 28 10 54 0 79 51 121 147 121 41 0 63 9 63 26 0 18 39 44 67 44
12 0 29 -7 37 -16z m-1424 -111 c-1 -10 -7 -29 -15 -43 -8 -14 -14 -35 -15
-47 0 -27 0 -27 -52 -11 l-39 11 53 54 c56 57 68 63 68 36z m240 -1 l35 -8
-62 -33 c-34 -18 -69 -41 -78 -51 -28 -31 -1 -30 46 1 70 47 138 63 233 54 73
-6 95 -15 96 -37 0 -5 -36 -8 -80 -8 -47 0 -80 -4 -80 -10 0 -6 37 -10 90 -10
50 0 90 -2 90 -4 0 -2 3 -11 6 -20 5 -14 -7 -16 -92 -16 -110 0 -165 -12 -192
-40 -17 -18 -19 -18 -112 12 -54 16 -103 38 -112 50 -26 29 -23 93 3 119 20
20 28 21 98 15 42 -4 92 -10 111 -14z m1848 -44 c138 -85 283 -188 277 -198
-6 -10 -311 -230 -319 -230 -3 0 -45 29 -94 64 l-88 65 4 69 c3 43 -2 92 -12
131 -9 34 -16 67 -16 71 0 13 112 89 130 89 9 1 62 -27 118 -61z m-1201 -80
c-4 -46 -7 -98 -7 -116 0 -29 -2 -32 -19 -23 -40 22 -55 136 -24 181 44 64 57
53 50 -42z m-1286 60 c76 -12 77 -18 9 -37 -121 -35 -260 -128 -392 -263 -49
-48 -88 -86 -88 -84 0 14 57 159 81 207 50 101 107 151 199 175 58 16 105 17
191 2z m394 -103 c337 -106 521 -155 579 -155 14 0 27 -4 31 -9 7 -12 -77 -71
-100 -71 -23 0 -65 30 -65 46 0 14 -12 18 -85 29 -22 3 -48 8 -57 11 -15 4
-18 -1 -18 -33 0 -101 -46 -263 -75 -263 -23 0 -55 154 -55 261 0 76 0 76 -63
58 -30 -8 -37 -14 -32 -27 29 -76 29 -99 1 -171 -27 -69 -49 -100 -60 -83 -11
17 -46 212 -46 255 0 29 7 53 20 70 27 34 26 37 -12 37 -18 0 -64 7 -102 15
-38 8 -72 12 -75 8 -3 -3 -1 -8 6 -10 19 -7 57 -73 47 -82 -32 -29 -125 -91
-136 -91 -15 0 -218 157 -218 169 0 12 131 70 182 81 81 17 174 4 333 -45z
m-810 -37 c-18 -35 -52 -116 -75 -180 l-43 -117 -82 67 c-63 51 -80 70 -71 79
9 10 297 213 302 213 1 0 -13 -28 -31 -62z m2253 40 c40 -12 41 -24 2 -33 -46
-10 -64 -45 -57 -110 l6 -55 -40 0 c-33 0 -39 -3 -39 -21 0 -34 -19 -59 -46
-59 -13 0 -27 7 -30 15 -4 10 -20 15 -49 15 -51 0 -80 24 -53 44 16 12 16 14
0 37 -16 23 -22 132 -8 146 3 3 16 3 29 -1 23 -5 24 -8 20 -78 -4 -56 -1 -78
11 -93 15 -19 15 -19 16 11 0 43 16 54 77 54 52 0 53 1 53 29 0 37 -16 49 -74
57 -49 7 -55 14 -31 34 34 29 133 32 213 8z m-868 -28 c10 -19 8 -20 -80 -19
-55 1 -96 -4 -105 -11 -14 -12 -81 -4 -90 10 -3 5 5 16 17 24 17 12 49 16 135
16 102 0 113 -2 123 -20z m1099 -11 c25 -71 9 -117 -46 -133 -30 -9 -29 -30 2
-54 14 -11 25 -25 25 -31 0 -15 -54 -41 -86 -41 -26 0 -26 1 -19 47 4 26 13
60 21 75 21 41 17 62 -20 111 -19 25 -32 48 -29 51 4 3 37 6 74 6 66 0 67 0
78 -31z m-1999 -190 c0 -11 -368 -269 -384 -269 -7 0 -48 27 -90 61 l-77 60
27 37 c15 20 41 52 57 69 31 33 31 33 49 13 25 -27 63 -25 82 2 21 30 20 44
-6 70 l-21 21 34 30 c19 16 51 42 72 57 l38 29 110 -86 c60 -48 109 -90 109
-94z m1821 160 c29 -15 6 -39 -37 -39 -40 0 -54 18 -29 37 23 16 40 17 66 2z
m-191 -14 c19 -23 -30 -43 -66 -26 -21 9 -24 14 -14 26 7 8 25 15 40 15 15 0
33 -7 40 -15z m1268 -169 c67 -66 121 -123 120 -127 -7 -20 -260 -190 -278
-187 -25 4 -339 229 -339 243 0 6 71 60 157 121 l157 112 30 -22 c17 -11 85
-74 153 -140z m-1033 114 c12 -20 -7 -93 -31 -117 -19 -19 -28 -22 -44 -13
-40 22 -64 102 -38 128 15 15 104 16 113 2z m-1637 -125 c24 -65 42 -124 40
-131 -3 -12 -218 150 -218 164 1 11 114 92 125 88 6 -1 29 -56 53 -121z m878
85 l94 0 0 -31 c0 -21 -9 -38 -30 -55 -16 -14 -49 -55 -72 -90 -23 -35 -45
-64 -49 -64 -8 0 -187 143 -191 152 -5 12 125 97 140 92 8 -2 56 -4 108 -4z
m-1457 -29 c13 -24 -9 -57 -33 -48 -23 9 -31 34 -16 52 17 20 37 19 49 -4z
m2626 -57 c41 -31 75 -59 75 -63 0 -6 -303 -223 -321 -229 -9 -4 -49 70 -49
91 0 8 14 20 31 27 50 21 118 96 151 165 16 36 32 65 34 65 3 0 38 -25 79 -56z
m-2977 -16 c42 -34 81 -65 85 -68 5 -4 -12 -75 -36 -159 -25 -83 -42 -151 -38
-151 18 0 43 41 65 106 34 98 57 154 65 154 8 0 145 -110 149 -120 4 -12 -363
-270 -384 -270 -11 0 -104 67 -207 149 l-189 150 77 53 c43 29 130 90 194 135
64 45 122 82 129 82 8 1 48 -27 90 -61z m1491 38 l23 -24 -93 -66 c-51 -36
-94 -64 -96 -62 -6 6 64 115 95 149 32 33 42 34 71 3z m918 13 l28 -12 -35 -8
c-36 -8 -57 1 -46 20 9 14 18 14 53 0z m-1548 -119 c106 -83 123 -100 138
-142 19 -53 26 -58 39 -27 l9 20 28 -21 c15 -12 27 -25 27 -30 0 -10 -371
-271 -385 -270 -14 1 -375 288 -375 297 1 13 374 274 387 271 7 -2 66 -46 132
-98z m1121 77 c0 -7 -7 -22 -15 -33 -20 -26 -20 -51 0 -34 33 27 47 -16 15
-45 -11 -10 -20 -25 -20 -34 0 -12 3 -12 12 -3 7 7 16 12 20 12 12 0 10 -38
-2 -45 -19 -12 -11 -33 10 -28 42 11 12 -52 -49 -103 -47 -39 -104 -40 -137
-1 -52 61 -20 189 70 280 47 46 96 64 96 34z m460 -12 c21 -25 8 -50 -29 -53
-69 -7 -104 21 -69 56 17 17 83 15 98 -3z m-792 -84 l100 -80 -28 -70 c-16
-39 -38 -102 -50 -140 -20 -68 -23 -71 -92 -120 -63 -45 -73 -49 -93 -38 -30
17 -335 259 -335 266 0 3 12 14 25 24 24 17 24 17 41 -15 l17 -32 32 64 c29
58 42 71 141 142 60 43 116 78 125 78 9 0 62 -36 117 -79z m964 -28 c4 -34 16
-84 28 -110 l21 -48 -36 -32 c-69 -59 -120 -78 -220 -78 -80 0 -97 3 -148 29
-32 16 -56 32 -55 36 2 3 18 40 37 81 l33 76 55 -16 c45 -12 62 -13 101 -2 52
13 104 57 123 103 9 21 18 28 33 26 18 -3 22 -12 28 -65z m-1442 -19 l24 -76
-24 -19 c-33 -24 -49 -23 -85 6 l-29 24 34 71 c19 38 39 70 45 70 6 0 22 -34
35 -76z m2084 -56 c91 -67 163 -125 161 -129 -8 -12 -284 -209 -294 -209 -5 0
-12 46 -16 103 -4 56 -10 119 -13 140 l-7 38 -60 -32 c-33 -17 -86 -49 -119
-70 -32 -22 -61 -39 -65 -39 -17 0 -92 74 -89 87 4 18 298 232 320 232 10 1
92 -54 182 -121z m568 -14 c40 -47 99 -122 131 -166 l57 -81 -72 -53 c-122
-88 -92 -94 -291 52 -96 71 -175 133 -176 137 -2 9 257 197 271 197 4 0 40
-39 80 -86z m-4141 -167 c107 -85 194 -158 193 -163 -1 -17 -358 -262 -374
-256 -8 3 -74 52 -147 110 -121 96 -131 107 -121 126 39 75 231 336 247 336 4
0 95 -69 202 -153z m825 -33 c101 -81 184 -150 184 -155 0 -19 -23 -20 -43 -1
-12 11 -32 23 -44 27 -13 3 -23 13 -23 20 0 8 -14 30 -31 50 -42 47 -66 43
-96 -14 -14 -27 -35 -50 -52 -57 -16 -7 -33 -20 -39 -29 -7 -14 -13 -15 -30
-6 -11 6 -36 11 -54 11 -19 0 -51 9 -73 20 -22 11 -47 20 -57 20 -23 0 -40
-43 -36 -92 4 -67 -12 -66 -101 3 -45 34 -81 67 -81 73 1 11 368 275 383 276
5 0 92 -66 193 -146z m1354 41 c22 -7 22 -8 15 -129 -16 -282 -33 -463 -43
-483 -37 -69 -127 -5 -151 108 -29 134 1 407 61 562 l11 27 42 -39 c23 -21 52
-42 65 -46z m-551 -61 c94 -74 169 -139 166 -144 -10 -17 -368 -265 -381 -265
-7 0 -56 33 -109 74 l-95 73 0 53 c0 30 -3 60 -6 69 -8 20 -44 20 -88 2 -20
-8 -39 -10 -47 -5 -7 4 -11 10 -9 13 20 19 377 266 386 266 6 0 88 -61 183
-136z m1394 82 c21 -64 -28 -156 -85 -156 -43 0 -68 17 -84 57 -9 19 -14 36
-12 37 61 28 120 62 134 77 22 24 35 20 47 -15z m331 -18 c-25 -68 -20 -125
16 -208 38 -87 38 -90 -21 -277 l-42 -133 -33 0 c-88 0 -205 70 -222 133 -11
38 -7 47 19 47 10 0 28 9 39 20 25 25 27 95 5 127 -18 25 -73 44 -107 36 -39
-8 138 155 247 229 55 37 103 68 107 68 4 0 0 -19 -8 -42z m-764 -49 c0 -20
-40 -81 -57 -87 -7 -2 -13 4 -13 13 0 9 -10 38 -21 66 -17 38 -19 52 -10 63
10 12 19 10 56 -12 25 -15 45 -34 45 -43z m1363 -58 c92 -68 167 -127 165
-131 -7 -19 -399 -292 -412 -287 -16 7 -243 174 -250 185 -2 4 -6 38 -7 76
l-4 69 150 108 c98 71 157 108 170 106 11 -2 96 -59 188 -126z m-834 42 c4 -3
-157 -163 -164 -163 -1 0 -5 11 -8 25 -4 22 2 29 34 46 45 23 65 50 74 102 l7
38 27 -23 c14 -13 28 -24 30 -25z m-650 10 c6 -16 15 -42 20 -60 9 -30 8 -33
-25 -43 -18 -6 -44 -8 -56 -5 -29 9 -68 44 -68 61 0 11 94 73 111 74 4 0 12
-12 18 -27z m277 -3 l64 0 0 -35 c0 -43 -23 -90 -49 -105 -11 -5 -38 -10 -61
-10 -54 0 -90 36 -90 91 0 59 8 72 43 65 16 -3 58 -6 93 -6z m1662 -163 c65
-111 165 -307 157 -307 -11 0 -396 292 -392 297 22 22 163 120 169 117 3 -2
33 -50 66 -107z m-3564 81 c9 -12 16 -30 16 -40 0 -12 8 -18 23 -18 30 0 67
-27 67 -48 0 -10 -7 -28 -16 -41 -13 -18 -23 -22 -45 -17 -37 7 -39 -15 -4
-49 19 -20 34 -25 78 -25 31 0 61 6 73 15 18 14 18 14 -7 15 -33 0 -49 17 -49
52 0 18 8 33 25 44 21 14 28 14 53 1 26 -12 31 -12 51 5 31 25 71 24 71 -1 0
-11 -4 -31 -9 -44 -7 -19 -5 -28 10 -40 23 -20 25 -60 4 -77 -14 -12 -42 -10
-78 5 -13 6 -21 -1 -35 -34 l-19 -41 -224 -4 c-123 -3 -236 -8 -251 -12 -27
-6 -28 -5 -28 37 0 62 -9 72 -48 57 -27 -10 -34 -9 -51 7 -27 24 -26 46 3 74
21 19 23 27 15 54 -10 37 -3 67 16 67 7 0 26 -13 42 -28 25 -25 30 -27 53 -15
35 18 47 16 64 -9 24 -34 19 -56 -15 -77 l-31 -19 23 -16 c51 -35 148 -9 162
43 4 17 1 19 -24 14 -37 -7 -59 11 -59 48 0 21 7 32 30 44 16 8 36 15 45 15 8
0 15 9 15 21 0 25 17 59 30 59 5 0 16 -10 24 -22z m1110 -62 c-4 -45 -11 -76
-18 -76 -6 0 -31 17 -54 38 l-44 38 59 41 c32 23 59 40 61 38 2 -1 0 -37 -4
-79z m374 54 c12 -16 36 -33 53 -38 l31 -8 -63 -39 c-35 -21 -74 -45 -86 -53
l-23 -14 0 76 c0 72 1 76 28 90 36 20 35 20 60 -14z m571 -26 c44 -56 19 -146
-48 -174 -63 -26 -120 4 -136 71 -6 23 -2 27 34 37 42 13 77 49 87 88 5 19 10
22 24 14 10 -5 28 -22 39 -36z m-255 -53 c32 -20 34 -24 24 -52 -13 -37 -44
-59 -83 -59 -52 0 -61 15 -57 100 3 66 6 77 25 86 19 8 24 5 39 -22 10 -18 33
-42 52 -53z m-146 -13 l-3 -62 -83 -59 c-46 -33 -84 -58 -86 -56 -2 2 -6 30
-10 61 l-6 57 87 60 c49 33 92 60 96 60 4 1 7 -27 5 -61z m-2180 -22 c70 -57
79 -68 74 -91 -9 -50 43 -102 94 -93 16 2 19 -3 18 -33 -2 -71 -10 -81 -142
-174 -70 -49 -132 -91 -139 -93 -11 -3 -365 272 -371 288 -4 11 350 260 370
260 9 0 52 -29 96 -64z m1569 -7 c52 -40 53 -43 53 -93 1 -79 18 -184 40 -232
l19 -44 -72 -51 -72 -51 -68 7 -69 6 -139 111 c-77 61 -138 115 -136 121 5 16
359 267 376 267 8 0 38 -19 68 -41z m-2211 -77 c68 -53 123 -101 123 -107 1
-11 -340 -255 -356 -255 -5 0 -30 19 -57 43 l-49 42 33 78 c28 67 34 75 44 61
15 -19 60 -22 81 -4 33 27 7 90 -36 90 -18 0 -16 8 22 81 30 58 46 79 57 74 8
-3 70 -49 138 -103z m4669 -49 c107 -78 182 -140 177 -145 -5 -5 -94 -71 -197
-148 -121 -88 -195 -137 -207 -135 -27 6 -379 266 -375 278 5 16 381 286 399
286 10 1 101 -61 203 -136z m-1269 82 c18 -19 23 -31 19 -48 -9 -29 -33 -47
-62 -47 -19 0 -23 -5 -23 -32 0 -105 109 -194 261 -213 l57 -7 37 113 c21 63
41 118 45 122 4 4 10 -101 13 -234 9 -318 9 -499 0 -499 -25 1 -36 32 -63 166
-15 82 -30 160 -32 174 -2 15 -11 26 -22 28 -16 4 -18 0 -12 -29 3 -18 9 -63
13 -100 6 -66 5 -69 -18 -78 -13 -5 -27 -7 -31 -5 -3 2 -9 51 -13 110 -5 72
-12 110 -22 120 -9 8 -17 14 -18 12 -2 -2 0 -48 5 -103 15 -160 12 -311 -5
-345 -17 -34 -66 -74 -75 -63 -9 10 -50 133 -50 150 0 7 13 19 29 27 52 27 63
86 49 244 -9 97 -15 129 -30 145 -19 22 -19 22 -14 -28 12 -99 19 -253 12
-278 -6 -25 -42 -67 -57 -67 -4 0 -15 29 -24 65 l-18 66 23 16 c22 16 23 19
17 136 -5 104 -9 124 -27 141 l-21 21 8 -60 c4 -33 8 -93 8 -134 0 -140 -31
-89 -82 134 -21 96 -24 282 -5 337 24 69 83 88 128 43z m-793 -27 c3 -13 7
-79 8 -148 l2 -125 -31 -9 c-18 -5 -34 -7 -36 -5 -10 10 12 279 24 293 17 22
27 20 33 -6z m426 3 c6 -10 29 -26 51 -35 43 -17 47 -27 29 -89 -14 -51 -64
-75 -121 -58 -42 13 -62 42 -72 107 -7 40 -6 41 23 47 17 4 38 15 48 26 23 25
30 25 42 2z m-233 -58 c-23 -88 -75 -166 -128 -194 -14 -8 -18 -6 -18 8 0 10
-3 41 -6 69 l-6 50 83 57 c46 31 84 57 85 57 1 0 -3 -21 -10 -47z m87 27 c13
-12 -28 -97 -53 -110 -12 -6 -24 -10 -26 -7 -2 2 4 34 13 70 16 59 20 66 38
61 11 -4 24 -10 28 -14z m340 -72 c-4 -58 -10 -88 -18 -88 -24 0 -55 47 -61
93 -6 40 -4 47 12 52 11 4 30 12 44 19 14 7 26 12 27 12 0 -1 -1 -40 -4 -88z
m-1578 1 c36 -29 65 -55 65 -58 -1 -3 -51 -42 -113 -86 -61 -44 -136 -98 -166
-119 l-54 -39 6 84 c3 46 15 112 27 146 l22 63 39 -6 c47 -8 79 14 79 54 0 32
13 26 95 -39z m2260 -26 c55 -41 100 -78 100 -83 0 -7 -208 -162 -211 -157 -1
1 -5 76 -9 166 -5 135 -4 162 7 155 7 -4 58 -41 113 -81z m-4097 20 c4 -30
-31 -49 -52 -27 -19 19 -20 26 -4 42 19 19 53 10 56 -15z m3117 -70 c11 -14
36 -28 55 -32 29 -6 35 -11 32 -32 -1 -13 -16 -37 -33 -53 -28 -25 -37 -28
-81 -24 -62 6 -106 45 -110 98 -3 29 0 35 19 38 12 2 34 16 50 30 23 23 30 25
38 13 6 -7 19 -25 30 -38z m-2590 -103 c96 -77 175 -144 175 -149 0 -5 -48
-43 -107 -86 l-106 -76 -154 15 -153 16 -100 82 c-55 45 -99 85 -97 91 5 16
331 246 350 246 10 1 96 -62 192 -139z m795 116 c0 -2 -14 -30 -31 -62 -28
-54 -30 -66 -28 -140 4 -96 -2 -106 -72 -129 -71 -24 -83 -47 -76 -146 5 -79
6 -81 45 -115 77 -66 122 -209 93 -297 -26 -78 -109 -110 -177 -68 -47 28 -94
110 -101 174 -7 69 18 156 58 201 27 31 30 41 27 88 l-3 53 -33 -52 c-99 -154
-121 -270 -75 -382 9 -20 38 -73 66 -119 27 -45 48 -84 46 -86 -7 -7 -184 134
-187 149 -2 7 4 64 13 126 8 61 18 165 22 229 l6 117 -192 13 c-105 7 -191 16
-191 19 0 10 186 141 199 141 7 0 59 -38 117 -85 59 -47 110 -85 114 -85 14 0
87 88 105 127 21 44 21 96 1 145 -9 21 -16 62 -16 92 0 45 4 57 20 66 17 9 20
8 21 -12 l0 -23 16 23 c8 12 24 22 34 22 23 0 23 1 3 -38 -15 -31 -32 -112
-21 -102 3 3 19 30 34 60 21 40 39 59 72 77 38 20 91 31 91 19z m217 -18 c14
-14 15 -22 5 -43 -7 -14 -12 -59 -12 -100 l0 -74 -32 6 c-42 8 -40 5 -28 38
15 39 2 113 -21 125 -10 6 -40 10 -68 10 -57 0 -68 17 -28 45 30 22 159 17
184 -7z m538 -108 l135 -105 -3 -60 -2 -59 -145 -103 c-80 -56 -155 -102 -168
-103 -14 0 -79 43 -173 116 -201 155 -202 141 21 303 91 66 173 119 183 118 9
-1 78 -49 152 -107z m1307 71 c29 -28 27 -72 -4 -101 -28 -25 -109 -28 -129
-4 -19 23 -16 80 5 103 30 33 95 34 128 2z m1741 -75 c108 -282 165 -547 187
-871 10 -146 5 -395 -8 -395 -7 0 -58 39 -131 100 l-57 48 29 113 c29 111 30
122 35 393 l4 279 -176 -8 -175 -7 -86 62 c-47 34 -85 66 -83 72 5 13 400 306
414 307 6 1 28 -41 47 -93z m-698 -76 c101 -74 185 -137 185 -140 0 -3 -40
-36 -90 -73 l-90 -67 -199 0 c-131 0 -209 4 -226 12 -25 11 -25 13 -25 127 l0
117 113 81 c61 45 120 81 129 80 10 -1 101 -63 203 -137z m-3405 27 c15 -60
20 -104 16 -122 -8 -33 -76 -105 -99 -105 -17 0 -182 127 -182 140 0 6 232
180 240 180 1 0 13 -42 25 -93z m412 69 c20 -30 -51 -49 -86 -23 -15 11 -15
15 -4 24 27 22 75 22 90 -1z m1593 -57 c42 -15 43 -22 10 -54 -29 -29 -64 -32
-95 -7 l-22 18 18 63 17 63 19 -35 c12 -24 29 -40 53 -48z m-156 -65 c-12 -54
-28 -107 -37 -116 -19 -23 -54 -225 -43 -247 6 -10 2 -53 -9 -111 -57 -298
-73 -566 -68 -1181 3 -495 3 -507 -17 -529 -20 -22 -74 -54 -80 -48 -6 6 112
2264 119 2276 3 6 23 13 44 17 20 3 53 15 72 25 19 10 36 17 38 16 1 -2 -7
-48 -19 -102z m-2944 8 c0 -6 -28 -31 -61 -56 l-61 -44 -19 -114 c-13 -82 -18
-164 -18 -298 1 -201 17 -309 72 -474 14 -44 22 -81 16 -83 -5 -2 -49 -30 -99
-63 l-90 -60 -9 107 c-9 123 5 419 30 583 22 150 58 308 100 435 53 159 47
153 97 112 23 -19 42 -39 42 -45z m1515 54 c0 -8 -18 -49 -39 -90 -39 -75 -39
-75 -12 -62 14 8 35 23 45 35 23 26 86 30 86 6 0 -9 -7 -18 -15 -21 -13 -5
-13 -10 -1 -33 10 -18 11 -32 5 -44 -20 -35 -159 -11 -196 34 -21 26 -31 114
-17 148 12 28 17 30 71 34 32 2 61 4 66 5 4 1 7 -5 7 -12z m1116 -1 c16 -8 49
-15 73 -15 l44 0 -6 -97 c-3 -54 -20 -379 -37 -723 -17 -344 -34 -638 -38
-654 l-7 -28 -24 19 -23 19 21 34 c11 19 21 45 21 58 0 35 -28 82 -56 93 -26
9 -26 10 -20 97 15 215 18 232 31 232 15 0 20 74 35 505 6 165 12 321 15 347
l4 47 -91 3 -91 3 53 38 c62 43 59 42 96 22z m708 -35 c26 -10 28 -13 23 -51
-3 -22 -11 -47 -18 -55 -56 -67 -179 -7 -179 87 0 39 0 39 38 39 21 0 47 7 58
14 17 13 21 13 34 -4 8 -10 28 -24 44 -30z m111 -16 c40 -19 61 -48 77 -108
10 -39 10 -51 -5 -81 -27 -57 -24 -68 17 -51 34 14 35 14 45 -17 13 -36 10
-40 -49 -56 -25 -7 -76 -26 -114 -42 -37 -16 -70 -29 -72 -29 -4 0 -24 71 -24
86 0 7 21 15 48 18 87 13 83 4 52 119 -41 154 -44 177 -24 177 9 0 31 -7 49
-16z m-3321 -95 c47 -39 86 -72 86 -73 0 -3 -302 34 -319 40 -14 4 114 104
135 104 6 0 50 -32 98 -71z m2945 44 c14 3 34 9 44 12 11 5 17 2 17 -7 0 -25
60 -86 96 -98 43 -14 99 -7 125 15 17 16 18 15 28 -22 17 -62 15 -70 -26 -76
-74 -12 -190 32 -252 96 -32 34 -36 35 -82 30 -47 -6 -49 -5 -49 20 0 14 3 32
6 41 5 14 9 14 36 0 17 -9 42 -14 57 -11z m-459 -40 c0 -27 -7 -196 -15 -378
-8 -181 -15 -347 -15 -367 0 -34 -3 -38 -25 -38 -24 0 -25 1 -18 63 12 111 12
112 -22 110 -16 -1 -38 -12 -47 -23 -10 -12 -21 -19 -26 -16 -9 5 -62 -9 -96
-26 -28 -15 -37 3 -34 67 3 58 4 59 38 68 51 13 73 36 66 69 -3 16 -1 28 4 28
14 0 23 41 12 52 -7 7 -6 18 4 33 8 12 17 52 21 88 5 56 3 68 -11 73 -13 5
-15 15 -10 55 5 40 4 50 -10 55 -21 8 -56 -23 -82 -72 -10 -18 -22 -34 -26
-34 -10 0 -11 224 -1 233 3 4 71 7 150 7 l143 0 0 -47z m-1272 -53 c18 -30
108 -71 168 -77 l53 -6 6 -41 c11 -67 41 -122 95 -180 l52 -55 -27 -17 c-15
-10 -53 -20 -85 -22 -69 -5 -110 14 -200 90 -35 29 -88 73 -119 97 -62 48 -69
59 -70 114 -1 49 12 73 52 97 41 25 59 25 75 0z m1752 -15 l30 -30 -18 -35
c-13 -28 -24 -36 -50 -38 -47 -5 -92 42 -92 96 l0 39 50 -1 c41 -1 55 -6 80
-31z m-1228 -139 c37 -28 67 -56 67 -62 1 -6 -37 -37 -84 -69 l-85 -59 -46 45
c-54 52 -88 107 -104 168 -11 43 -11 46 14 64 18 13 26 28 26 48 l0 30 73 -57
c39 -31 102 -80 139 -108z m2919 103 c38 -28 69 -52 67 -54 -8 -6 -298 -13
-298 -7 1 9 141 112 152 112 5 0 40 -23 79 -51z m-2551 -94 c-52 -65 -135
-145 -152 -145 -13 0 -98 64 -95 72 1 4 67 53 147 108 l145 101 3 -36 c3 -30
-5 -45 -48 -100z m-2114 90 c221 -27 443 -50 668 -68 l150 -12 -2 -65 c-4
-116 -22 -263 -46 -370 -29 -129 -81 -266 -104 -275 -19 -7 -233 -24 -243 -19
-7 4 -33 174 -27 180 11 11 62 -27 74 -55 17 -40 69 -71 118 -71 35 0 38 2 32
23 -24 82 -35 131 -32 134 2 2 15 -1 30 -7 15 -5 39 -10 52 -10 20 0 24 4 20
18 -10 34 -26 107 -26 124 0 15 4 16 26 8 54 -21 54 -22 54 142 0 142 -1 153
-22 175 -31 33 -90 32 -124 -2 -21 -21 -25 -34 -22 -68 3 -41 2 -43 -52 -79
-30 -20 -81 -47 -113 -59 -50 -19 -60 -20 -68 -8 -15 24 -10 39 12 39 16 0 19
4 13 18 -4 9 -10 44 -14 77 -9 78 -15 90 -57 116 -25 16 -37 19 -45 11 -8 -8
-22 -2 -50 24 -30 27 -46 34 -70 32 -17 -2 -33 -8 -35 -14 -2 -7 4 -11 14 -10
10 0 19 -7 21 -19 2 -11 20 -55 39 -99 l35 -78 -21 -29 c-21 -29 -21 -29 -1
-29 21 0 26 -16 11 -39 -7 -11 -20 -10 -74 8 -72 24 -137 66 -163 105 -14 23
-14 27 0 48 20 28 20 61 1 97 -16 33 -33 41 -79 41 -59 0 -69 -22 -77 -183 -4
-78 -5 -144 -3 -146 1 -1 17 4 35 13 18 9 34 14 37 12 7 -8 -18 -146 -33 -183
-8 -20 -15 -37 -15 -39 0 -2 21 -4 46 -4 42 0 45 -1 39 -22 -4 -13 -15 -40
-26 -61 -17 -34 -17 -38 -3 -44 27 -10 98 18 130 53 18 18 43 36 57 40 15 3
31 12 38 20 6 8 15 14 19 14 11 0 -5 -77 -30 -144 l-22 -59 -58 6 c-31 4 -89
18 -128 32 l-70 27 -20 81 c-32 127 -45 259 -39 392 7 133 26 285 37 285 4 0
96 -11 206 -25z m2885 -78 c116 -115 246 -162 381 -138 34 6 65 7 69 3 3 -4
18 -37 31 -74 30 -79 34 -76 -93 -85 -157 -11 -288 32 -394 128 -91 84 -96 94
-82 172 6 37 12 67 13 67 1 0 35 -33 75 -73z m177 54 c21 -11 55 -22 75 -26
35 -7 37 -9 37 -45 0 -91 -128 -108 -161 -21 -9 22 -3 111 8 111 2 0 21 -9 41
-19z m-763 -1 c8 -13 -52 -140 -82 -172 -14 -15 -22 -31 -18 -38 11 -18 60 35
80 86 24 62 39 56 33 -13 -4 -50 -9 -61 -41 -89 -39 -33 -48 -50 -21 -40 24 9
47 -13 33 -30 -6 -8 -18 -14 -25 -14 -8 0 -14 -4 -14 -10 0 -5 7 -10 16 -10
27 0 10 -33 -21 -41 -17 -4 -86 -9 -154 -12 l-123 -5 -36 33 c-36 33 -36 33
-18 54 10 11 42 35 70 53 68 42 111 83 148 141 16 26 32 47 35 47 7 0 -2 -71
-12 -94 -8 -19 -7 -19 22 2 16 12 47 53 67 92 36 68 48 80 61 60z m1672 -62
c6 -7 11 -89 12 -183 2 -180 20 -338 50 -436 l19 -59 -50 -36 c-28 -19 -51
-34 -53 -32 -1 2 -5 173 -8 381 -4 301 -2 377 8 377 7 0 17 -6 22 -12z m-3774
-26 c21 -22 34 -27 56 -24 53 8 93 -83 57 -130 -39 -52 -89 0 -141 145 -17 44
-8 47 28 9z m4902 -36 c4 -35 5 -72 3 -82 -3 -16 -7 -14 -23 14 -24 41 -38 40
-64 -2 -24 -38 -26 -75 -9 -122 16 -46 -9 -107 -76 -180 -62 -67 -70 -66 -86
15 -11 58 -5 100 16 117 34 28 36 100 3 140 -14 17 -33 5 -61 -41 l-18 -30 0
31 c0 18 -11 68 -23 113 l-24 80 116 4 c64 1 144 4 178 5 l61 2 7 -64z m-5169
29 c19 -29 11 -62 -20 -88 l-21 -17 54 -51 c61 -57 126 -93 208 -114 63 -17
73 -12 73 38 0 25 3 27 39 27 l38 0 6 -52 c3 -29 15 -75 27 -102 43 -95 8
-234 -67 -269 -23 -10 -28 -8 -53 20 -16 18 -37 57 -46 88 -15 47 -16 64 -7
108 6 29 14 60 18 70 6 14 2 17 -24 17 -18 0 -49 9 -71 20 l-39 20 -5 -33
c-20 -131 -27 -161 -42 -192 -15 -32 -69 -74 -80 -62 -2 2 5 30 16 63 17 47
50 212 50 247 0 4 -7 7 -15 7 -10 0 -15 -10 -15 -30 0 -51 -21 -135 -38 -147
-9 -7 -23 -13 -33 -13 -15 0 -15 5 -3 58 17 72 22 214 9 218 -5 2 -17 -11 -25
-28 -28 -60 -35 -43 -32 74 3 62 8 121 13 131 15 26 65 22 85 -8z m3869 3 c31
-136 31 -163 8 -270 -18 -85 -26 -88 -58 -19 -11 25 -22 38 -31 34 -11 -4 -11
-10 2 -35 9 -16 13 -32 11 -35 -3 -2 -31 9 -62 25 l-57 29 36 21 c47 28 67 74
74 174 4 66 8 78 23 78 10 0 21 5 24 10 10 17 24 11 30 -12z m905 15 c0 -5 -7
-16 -14 -26 -12 -16 -15 -16 -27 -1 -12 14 -14 14 -26 -2 -12 -17 -14 -17 -33
1 -20 18 -20 18 -20 -6 0 -37 -18 -49 -72 -49 l-48 0 0 -40 0 -40 46 0 c52 0
79 -12 94 -40 18 -34 0 -45 -24 -15 -20 25 -28 28 -104 29 -105 3 -106 -17 -2
-24 46 -3 75 -10 78 -17 2 -9 -5 -11 -27 -7 -24 5 -31 3 -31 -10 0 -12 10 -16
44 -16 47 0 68 -13 38 -25 -39 -15 -184 -24 -203 -12 -10 6 -19 15 -19 20 0 4
-11 24 -25 44 -16 24 -22 45 -19 59 4 13 -1 33 -10 46 l-16 23 -6 -22 c-7 -27
-8 -27 -38 -8 -25 17 -56 11 -56 -11 0 -16 35 -54 50 -54 6 0 10 -4 10 -10 0
-5 -9 -10 -19 -10 -26 0 -51 -10 -51 -21 0 -4 16 -11 35 -15 24 -4 35 -12 35
-24 0 -10 7 -23 16 -31 14 -12 44 -61 44 -74 0 -3 -16 -5 -35 -5 -42 0 -112
45 -121 78 -5 20 -31 42 -48 42 -3 0 -6 -8 -6 -19 0 -13 -9 -20 -30 -23 -17
-3 -32 -2 -35 0 -3 3 -5 74 -5 158 l0 154 203 3 c111 1 264 3 340 5 75 1 137
-1 137 -5z m34 -103 c24 -85 23 -188 -3 -238 -26 -51 -40 -60 -57 -37 -11 15
-18 16 -38 7 -33 -15 -50 -78 -41 -155 l6 -59 -33 7 c-18 4 -59 18 -90 32
l-57 25 -37 -21 c-43 -26 -53 -20 -61 37 -4 30 0 53 17 87 26 54 75 84 153 91
108 11 137 31 137 95 0 55 -26 81 -88 87 -42 4 -52 8 -52 23 0 15 8 19 39 19
22 0 44 6 51 15 8 9 30 15 60 15 33 0 50 5 54 15 11 29 23 15 40 -45z m-4040
28 c12 -17 16 -50 16 -145 0 -68 -4 -123 -8 -123 -26 0 -45 31 -51 86 -6 43
-10 54 -16 41 -8 -19 0 -187 11 -239 8 -35 -6 -36 -42 -5 -25 22 -28 31 -32
111 -2 48 -7 85 -11 83 -52 -28 -183 -87 -194 -87 -14 0 -35 37 -25 44 1 1 32
13 68 26 65 24 210 114 210 130 0 5 -4 12 -10 15 -17 10 -11 63 8 74 28 17 60
12 76 -11z m2765 6 c22 -16 71 -105 71 -131 0 -10 -79 -43 -105 -43 -6 0 -23
37 -39 83 -15 45 -30 88 -33 95 -7 19 78 15 106 -4z m-1566 -47 l39 -32 -93
-81 c-92 -80 -94 -81 -108 -60 -8 11 -28 36 -44 53 -17 18 -28 35 -25 38 22
23 166 115 178 115 8 0 32 -15 53 -33z m-491 -178 c19 -15 20 -19 7 -58 l-14
-42 -72 53 c-40 29 -73 60 -73 68 -1 14 -26 90 -45 135 -5 11 33 -16 84 -60
51 -44 102 -87 113 -96z m1428 22 c-7 -56 -17 -101 -21 -101 -4 0 -20 10 -34
23 l-26 22 16 95 c9 52 19 98 22 103 3 5 17 -2 31 -16 l25 -26 -13 -100z
m2228 137 c7 -7 12 -21 12 -33 0 -25 -28 -67 -40 -60 -14 9 -20 53 -10 79 11
29 20 32 38 14z m-1168 -171 l0 -134 -26 -12 c-30 -13 -27 -35 4 -39 28 -4 29
-36 2 -79 -23 -38 -46 -51 -102 -59 l-43 -6 -33 94 c-17 51 -32 96 -32 100 0
3 15 9 33 13 136 28 167 38 167 51 0 11 -7 13 -26 8 -22 -6 -25 -4 -21 12 3
11 15 56 27 102 15 53 27 82 36 82 11 0 14 -26 14 -133z m970 83 c0 -34 -21
-55 -38 -38 -28 28 -4 101 25 77 7 -7 13 -24 13 -39z m-1939 1 c22 -17 45 -31
51 -33 14 -5 -12 -198 -27 -198 -15 0 -105 58 -105 67 0 33 30 193 36 193 2 0
22 -13 45 -29z m2175 -93 c-21 -338 -128 -596 -351 -851 -42 -48 -80 -85 -86
-82 -15 10 -10 63 11 108 l21 44 -20 44 c-22 47 -28 139 -11 139 6 0 24 -7 41
-15 27 -14 35 -14 87 2 70 21 66 17 52 42 -9 18 -6 25 25 52 20 18 43 46 52
63 24 46 19 136 -11 201 l-25 55 50 47 c57 54 92 108 109 171 6 23 15 42 21
42 5 0 15 11 21 25 6 14 13 25 16 25 3 0 2 -51 -2 -112z m-779 45 c15 -27 33
-52 40 -58 9 -8 7 -14 -11 -27 -22 -16 -23 -16 -55 37 -22 37 -31 60 -26 74
10 32 22 26 52 -26z m-2662 5 c47 -56 50 -71 26 -122 -25 -50 -55 -67 -79 -43
-29 30 -15 197 17 197 5 0 21 -15 36 -32z m-99 -63 l-9 -66 -54 53 c-29 29
-53 56 -53 60 0 6 18 9 106 16 19 2 20 -1 10 -63z m363 10 c23 -27 41 -53 41
-58 0 -20 -110 -239 -149 -295 -64 -95 -113 -111 -227 -72 -81 28 -224 101
-224 114 0 11 80 258 86 265 3 4 20 -9 103 -76 30 -25 63 -43 77 -43 19 0 53
29 131 110 58 61 110 109 114 108 4 -2 25 -25 48 -53z m2881 -14 c0 -31 7 -81
16 -111 l16 -53 -50 -51 c-64 -66 -72 -83 -72 -153 0 -49 6 -67 36 -116 29
-47 33 -61 24 -72 -18 -22 -39 -18 -82 11 -25 18 -38 34 -38 49 0 13 -11 53
-25 89 -30 80 -32 116 -7 123 17 4 18 11 9 71 -13 101 7 171 38 129 17 -23 27
-21 58 11 29 30 57 90 57 122 0 12 5 18 10 15 6 -3 10 -32 10 -64z m-1707 43
l39 -7 -4 -93 c-1 -51 -6 -96 -10 -100 -8 -8 -118 12 -129 24 -5 5 7 115 20
191 1 2 11 1 24 -3 12 -3 39 -9 60 -12z m442 -16 c31 -29 51 -75 156 -353 66
-176 158 -426 203 -555 133 -375 148 -440 106 -440 -14 0 -28 17 -49 58 -80
158 -332 793 -477 1200 l-44 122 35 0 c26 0 45 -9 70 -32z m-101 -80 c20 -57
36 -109 36 -116 0 -11 -15 -12 -67 -7 -38 4 -69 8 -69 9 -1 0 -5 47 -9 103 -7
101 -7 101 16 106 55 10 55 11 93 -95z m-144 -18 l0 -100 -65 0 -65 0 0 100 0
100 65 0 65 0 0 -100z m-2746 68 c3 -13 6 -52 6 -88 0 -36 7 -94 14 -130 8
-36 12 -67 10 -69 -3 -3 -16 0 -31 5 -43 15 -60 57 -67 171 l-7 102 28 15 c37
20 40 20 47 -6z m838 -88 c8 -6 -21 -90 -31 -90 -3 0 -31 24 -62 53 l-57 52
10 43 9 42 62 -47 c34 -25 65 -49 69 -53z m2353 34 c-87 -25 -86 -25 -101 11
-23 55 -18 57 49 24 34 -18 58 -33 52 -35z m-1591 50 c12 -5 16 -21 16 -70 0
-60 -2 -65 -25 -74 -36 -14 -185 -25 -185 -14 0 5 13 31 28 58 31 56 64 84
113 96 19 4 35 8 36 9 1 1 8 -2 17 -5z m-2045 -15 c26 -9 31 -16 31 -44 0 -40
-42 -95 -72 -95 -18 0 -20 4 -14 48 8 59 17 102 20 102 2 0 17 -5 35 -11z
m351 -85 c0 -55 -3 -74 -13 -74 -24 0 -47 35 -56 84 -8 46 -8 47 23 60 17 7
34 11 39 9 4 -2 7 -38 7 -79z m3628 66 l25 0 -27 -25 c-36 -33 -33 -44 12 -38
32 4 45 -1 97 -41 33 -25 70 -46 83 -46 13 0 25 -8 28 -17 22 -67 26 -73 46
-62 23 12 19 15 63 -46 l34 -48 -32 -21 c-40 -27 -46 -69 -18 -125 21 -40 28
-81 14 -81 -15 1 -53 38 -53 52 0 16 -36 58 -50 58 -6 0 -10 -11 -10 -25 0
-18 -4 -23 -15 -19 -20 8 -65 -4 -65 -16 0 -6 13 -18 29 -28 26 -15 27 -20 16
-36 -13 -17 -15 -15 -38 21 -40 63 -93 173 -122 253 -49 137 -84 333 -53 302
7 -7 23 -12 36 -12z m119 -26 c20 -15 45 -24 68 -24 30 0 36 -3 31 -16 -3 -9
-6 -24 -6 -35 0 -29 -29 -23 -90 17 -63 42 -80 60 -80 86 0 16 3 17 23 7 12
-6 36 -22 54 -35z m-1398 -5 c44 -27 51 -36 51 -63 0 -39 -20 -199 -25 -205
-2 -2 -27 11 -54 29 -49 31 -50 33 -46 73 3 23 7 77 11 120 3 42 7 77 9 77 2
0 26 -14 54 -31z m-404 -61 c-3 -18 -9 -69 -14 -113 -11 -94 -23 -107 -90 -99
-79 10 -170 33 -213 54 -23 11 -43 20 -45 20 -2 0 -3 -13 -3 -28 0 -25 -13
-37 -110 -101 -61 -41 -113 -71 -117 -68 -3 3 24 61 60 129 l65 123 103 12
c100 12 105 12 121 -7 23 -28 30 -25 26 13 -4 44 21 43 38 -3 14 -39 17 -34
14 23 -1 20 3 37 9 37 15 0 31 -34 31 -64 0 -46 19 -27 22 22 4 60 22 61 26 2
5 -68 19 -70 27 -4 8 63 19 84 42 84 10 0 12 -8 8 -32z m-1489 -44 c46 -36 84
-69 84 -73 0 -7 -301 -220 -323 -230 -4 -1 10 33 32 76 31 63 82 195 107 281
2 6 6 12 9 12 4 0 44 -30 91 -66z m378 11 c63 -53 64 -56 53 -85 -6 -16 -15
-30 -19 -30 -4 0 -50 26 -102 59 -90 55 -105 71 -66 71 9 0 25 9 35 20 10 11
22 20 26 20 4 0 37 -25 73 -55z m1671 11 c47 -20 61 -30 63 -49 4 -32 -14
-206 -22 -214 -4 -4 -36 8 -73 26 l-65 32 5 37 c3 20 9 72 13 115 4 42 10 77
13 77 3 0 33 -11 66 -24z m-1781 -141 c0 -37 -5 -52 -23 -66 -13 -11 -28 -19
-35 -19 -6 0 -21 39 -34 88 -12 48 -25 98 -29 111 -6 23 -1 21 58 -20 l64 -45
-1 -49z m1994 95 l32 0 0 -130 0 -130 -42 0 c-24 0 -60 5 -81 11 l-38 10 7
117 c3 64 9 121 12 126 2 4 21 6 41 2 20 -3 51 -6 69 -6z m189 -6 l30 -6 7
-116 c5 -90 4 -117 -6 -123 -7 -5 -43 -9 -79 -9 l-66 0 -6 121 c-4 67 -4 125
-1 130 6 10 77 12 121 3z m170 -116 c23 -62 41 -113 40 -114 -1 -1 -30 -4 -63
-7 l-62 -6 -6 42 c-3 23 -9 77 -12 120 l-7 77 34 0 34 0 42 -112z m1347 75
c41 -86 31 -167 -27 -221 -30 -29 -53 -26 -80 10 -46 62 -30 159 36 220 39 37
50 35 71 -9z m-331 -27 c23 -5 27 -12 27 -40 0 -19 2 -41 5 -48 3 -8 -7 -23
-25 -36 l-30 -22 -65 87 c-57 78 -63 89 -49 100 13 10 25 8 63 -11 25 -13 58
-26 74 -30z m-4338 -90 c23 -75 20 -103 -11 -110 -31 -8 -29 -40 4 -44 26 -4
29 -28 6 -60 -19 -28 -58 -29 -101 -2 -31 19 -33 19 -33 1 0 -24 27 -47 67
-58 l32 -8 -32 -58 -33 -58 -56 63 c-86 99 -91 109 -83 170 6 41 15 60 42 87
31 31 37 33 78 28 37 -6 45 -4 45 10 0 9 -7 21 -16 28 -15 10 -14 17 11 65
l27 53 19 -29 c11 -16 26 -51 34 -78z m836 21 c15 -91 2 -192 -42 -325 l-31
-92 -37 27 c-149 111 -270 210 -267 218 3 13 349 254 358 249 3 -2 12 -37 19
-77z m-672 18 c12 -49 9 -65 -15 -65 -9 0 -14 -10 -14 -27 0 -21 3 -24 12 -15
17 17 59 15 86 -4 31 -21 62 -86 69 -143 5 -46 4 -48 -53 -115 -66 -77 -55
-78 -112 15 l-23 38 28 7 c39 9 63 33 63 62 0 24 -1 24 -18 9 -10 -9 -33 -22
-50 -28 -26 -9 -37 -8 -57 5 -31 20 -34 61 -5 69 11 3 20 13 20 22 0 9 -9 19
-20 22 -24 6 -25 26 -5 82 16 46 66 122 76 115 4 -2 12 -24 18 -49z m978 -21
c42 -26 1 -84 -59 -84 -58 0 -78 26 -78 100 l0 60 58 -31 c31 -18 67 -38 79
-45z m2491 -40 l-52 -67 -13 30 c-6 17 -15 42 -18 56 -6 23 -3 26 35 32 23 4
53 17 68 30 25 22 27 22 30 5 2 -11 -19 -47 -50 -86z m-1408 58 c0 -37 -2 -39
-131 -130 -72 -51 -134 -92 -139 -92 -11 0 -180 122 -180 130 0 3 16 16 35 29
19 13 35 32 35 42 0 24 10 24 89 -1 81 -26 200 -37 228 -21 12 6 27 27 33 46
15 46 30 45 30 -3z m633 -152 c70 -19 97 -21 187 -16 58 3 157 9 221 12 l115
7 30 -79 30 -79 -180 -4 c-316 -8 -408 -6 -491 12 -44 9 -122 19 -172 22 l-93
7 0 88 c0 48 3 108 6 133 l6 45 130 -63 c71 -35 166 -73 211 -85z m-3118 109
c35 -10 37 -12 19 -19 -12 -5 -42 -11 -66 -15 -44 -7 -46 -6 -57 25 l-11 33
38 -7 c20 -3 55 -11 77 -17z m4143 -56 c44 -103 104 -202 177 -293 l63 -78
-69 -46 c-38 -25 -76 -46 -85 -46 -8 0 -64 37 -124 83 l-109 82 0 150 -1 150
57 37 c32 20 58 36 59 35 1 -1 16 -35 32 -74z m-2613 23 c66 -28 79 -54 34
-70 -56 -19 -119 20 -119 75 0 21 4 29 13 26 6 -3 39 -17 72 -31z m-285 -1 c0
-7 14 -25 31 -39 22 -19 29 -31 24 -46 -16 -52 -72 -66 -119 -29 -21 17 -26
29 -26 65 0 36 3 44 18 44 10 0 27 6 37 14 22 16 35 12 35 -9z m2709 -127 c-1
-84 -4 -164 -8 -178 -7 -25 -7 -24 -20 10 -47 129 -70 204 -63 214 21 34 78
105 85 106 4 0 7 -69 6 -152z m-3254 132 c5 -7 -7 -40 -19 -57 -2 -2 -93 30
-126 44 -9 4 6 10 35 13 80 11 103 11 110 0z m1781 -46 c-3 -26 -6 -69 -6 -95
0 -46 -2 -50 -33 -63 -19 -7 -42 -26 -53 -40 l-20 -27 -68 51 c-37 29 -65 54
-63 57 17 16 233 163 240 163 6 0 7 -20 3 -46z m2060 29 c10 -25 7 -169 -5
-190 -5 -10 -20 -29 -34 -41 l-25 -24 -31 23 c-17 12 -50 25 -73 29 l-43 6 34
18 c33 17 34 17 63 -4 57 -42 86 10 49 87 -26 53 -27 89 -3 102 27 16 59 13
68 -6z m-4512 -26 c-16 -18 -36 -44 -45 -57 l-17 -25 -18 37 c-10 21 -15 40
-12 44 10 9 81 33 102 34 15 0 14 -5 -10 -33z m4630 -7 c11 -27 16 -71 16
-133 0 -61 6 -108 17 -139 16 -45 16 -50 -1 -84 -23 -49 -41 -32 -37 36 2 42
-5 64 -43 142 -49 97 -53 116 -35 151 14 27 50 67 60 67 4 0 14 -18 23 -40z
m603 -82 c57 -44 55 -28 32 -179 l-10 -66 -109 -76 c-60 -43 -117 -77 -125
-77 -9 0 -52 27 -96 61 l-80 61 28 36 c62 81 133 196 169 276 l38 85 50 -41
c28 -22 74 -58 103 -80z m-3148 27 c39 -27 70 -55 71 -60 0 -10 -280 -215
-293 -215 -4 0 -9 17 -13 37 -4 21 -13 44 -21 51 -7 7 -13 32 -13 55 0 23 -3
52 -6 64 -5 18 8 30 83 81 73 50 91 58 105 49 10 -7 49 -34 87 -62z m-1513 46
c23 -10 45 -24 48 -30 6 -9 -29 -81 -39 -81 -3 0 -65 104 -73 123 -6 12 21 7
64 -12z m869 -77 c-16 -87 -135 -60 -135 31 0 27 4 35 18 35 9 1 28 7 40 14
22 11 27 10 54 -17 25 -25 29 -35 23 -63z m-1585 77 c0 -25 131 -203 207 -282
51 -53 83 -93 77 -98 -40 -38 -388 -271 -394 -264 -21 22 -100 412 -100 491 1
36 4 39 98 99 99 63 112 70 112 54z m1750 -41 c0 -41 -5 -56 -25 -75 -46 -47
-115 -22 -115 42 0 18 6 23 25 23 35 0 94 26 101 45 10 26 14 17 14 -35z m129
20 c33 0 34 0 28 -37 -16 -94 -127 -80 -127 16 l0 40 32 -10 c18 -5 48 -9 67
-9z m-521 -90 c13 0 32 5 43 10 16 9 24 5 49 -24 65 -73 201 -84 292 -22 32
21 37 22 63 9 18 -10 41 -13 65 -9 36 6 38 4 44 -25 15 -74 -3 -86 -74 -51
-34 18 -36 17 -85 -5 -91 -42 -211 -29 -290 32 -25 19 -40 22 -71 18 -46 -6
-116 11 -134 32 -7 8 -9 26 -5 44 l6 30 37 -19 c20 -11 47 -20 60 -20z m-383
-91 c98 -77 152 -126 148 -135 -6 -16 -337 -257 -358 -260 -8 -1 -38 16 -67
39 -29 23 -83 65 -121 95 l-67 53 88 87 c49 48 114 122 146 165 32 42 63 77
68 77 5 0 79 -54 163 -121z m1442 16 c62 -48 73 -60 73 -86 0 -50 38 -79 103
-79 35 0 59 -5 66 -14 10 -12 -6 -27 -86 -83 -214 -151 -247 -173 -262 -173
-23 0 -301 207 -301 224 0 8 -3 21 -6 29 -4 10 41 48 152 126 87 61 164 111
172 111 9 0 48 -25 89 -55z m-984 -66 c75 -22 101 -24 295 -24 l212 0 4 -30
c3 -16 8 -50 11 -74 l6 -44 -213 6 c-138 4 -238 11 -283 21 -73 17 -194 70
-232 102 -23 19 -22 38 2 121 3 8 23 1 60 -21 30 -19 92 -44 138 -57z m1201
59 c53 -76 -47 -164 -103 -92 -12 15 -21 34 -21 44 0 10 9 29 21 44 27 34 81
36 103 4z m2102 -63 c13 -37 15 -51 6 -71 -10 -21 -15 -23 -33 -13 -16 8 -28
8 -46 0 -25 -11 -23 -31 3 -31 24 0 15 -17 -13 -24 -29 -8 -65 22 -164 136
-47 54 -49 57 -30 68 29 15 63 4 100 -32 l31 -30 47 42 c48 42 48 42 65 21 9
-12 24 -42 34 -66z m-1575 56 c156 -31 188 -33 339 -16 140 15 214 14 293 -6
38 -10 38 -10 35 -57 -3 -45 -4 -47 -33 -45 -217 16 -282 15 -368 -6 -112 -27
-121 -26 -213 5 -96 33 -182 30 -269 -10 -31 -14 -59 -26 -61 -26 -2 0 -4 41
-4 90 l0 90 94 0 c53 0 135 -8 187 -19z m-2752 -199 c1 -14 -76 37 -105 69
-15 17 -13 22 32 72 l49 54 12 -91 c7 -50 12 -97 12 -104z m103 55 c-15 -16
-39 -38 -54 -48 l-27 -20 2 105 2 105 52 -57 51 -57 -26 -28z m3716 -34 c50
-41 92 -76 92 -78 0 -5 -126 -94 -143 -101 -17 -6 -52 110 -63 210 -8 70 -17
72 114 -31z m-3057 -74 c-8 -105 -15 -131 -89 -339 -100 -284 -144 -393 -159
-398 -36 -11 9 189 111 493 65 191 135 370 143 362 2 -2 -1 -56 -6 -118z
m1953 40 c10 -89 1 -169 -19 -169 -8 0 -26 5 -41 12 l-26 12 4 101 c2 55 7
106 12 113 4 7 20 12 34 10 26 -3 27 -7 36 -79z m49 70 c12 -6 34 -23 50 -37
29 -28 34 -64 18 -136 -11 -46 -17 -52 -57 -59 l-32 -6 5 82 c3 45 0 101 -5
125 -11 46 -10 47 21 31z m737 -71 c22 -46 45 -108 51 -138 12 -55 11 -55 -56
-230 -37 -96 -74 -197 -81 -225 -18 -67 -18 -125 0 -125 9 0 16 18 21 58 3 31
11 75 17 97 l11 40 18 -71 c23 -91 40 -132 85 -200 20 -30 35 -56 33 -58 -8
-7 -211 73 -230 90 -13 11 -19 30 -19 58 -1 42 101 786 108 786 1 0 21 -37 42
-82z m-2582 -98 c3 -123 5 -120 -71 -94 l-47 16 0 56 c0 32 3 87 6 124 l7 67
51 -29 51 -30 3 -110z m1695 158 c-4 -7 -10 -53 -13 -102 l-5 -89 -30 25 c-27
24 -30 32 -30 89 0 57 2 64 25 76 33 17 64 17 53 1z m578 -18 c9 -33 11 -159
3 -199 -6 -29 -10 -32 -38 -29 l-31 3 -7 105 c-10 137 -7 152 34 148 25 -2 34
-9 39 -28z m-106 -77 c0 -54 4 -110 8 -126 l7 -27 -32 13 c-35 14 -45 40 -48
122 -3 79 -1 92 23 103 40 19 42 15 42 -85z m214 70 c22 -14 23 -19 17 -78 -3
-35 -13 -80 -21 -99 -13 -30 -20 -36 -46 -36 -28 0 -31 3 -25 23 3 12 6 66 6
120 0 97 0 98 23 92 12 -4 33 -14 46 -22z m987 -136 c39 -31 76 -57 82 -57 6
0 53 46 105 101 l95 102 79 -58 c43 -31 78 -61 78 -66 0 -15 -357 -259 -380
-259 -23 0 -378 273 -383 294 -1 6 30 32 70 58 l72 47 56 -52 c30 -29 87 -79
126 -110z m668 34 c-15 -67 -30 -121 -34 -121 -14 0 -141 102 -138 110 4 12
191 141 196 135 2 -2 -8 -58 -24 -124z m-2664 -158 c-7 -136 -16 -251 -19
-255 -5 -6 -318 216 -348 246 -2 2 80 63 183 135 103 72 189 129 192 127 2 -3
-1 -117 -8 -253z m-2332 207 c27 -22 53 -40 57 -40 4 0 20 11 37 25 l29 25 72
-56 c40 -31 96 -75 125 -98 28 -22 52 -43 52 -46 -1 -9 -407 -300 -420 -300
-20 0 -392 262 -383 270 19 18 367 260 373 260 4 0 30 -18 58 -40z m3447 13
c-3 -16 -23 -186 -45 -379 -29 -248 -38 -359 -31 -376 7 -19 33 -35 108 -68
197 -86 241 -108 256 -131 18 -28 99 -240 94 -246 -2 -2 -39 24 -81 57 -92 73
-254 188 -353 252 -118 77 -125 99 -85 269 23 94 32 157 36 264 4 101 11 156
25 197 11 31 23 83 27 115 6 56 16 73 41 73 8 0 11 -10 8 -27z m-2730 0 c-3
-10 -26 -74 -51 -143 -67 -189 -69 -192 -75 -194 -12 -3 -170 126 -167 136 4
12 278 216 292 217 4 1 5 -7 1 -16z m2305 -45 c0 -35 7 -103 15 -153 11 -68
12 -98 4 -130 -20 -71 -14 -153 16 -245 26 -79 28 -96 27 -232 -1 -171 2 -177
90 -198 60 -15 156 -89 116 -91 -114 -5 -181 13 -275 72 -43 27 -88 52 -101
56 -17 4 -21 10 -17 22 16 38 16 152 1 408 -16 275 -15 323 10 401 8 23 14 61
14 83 0 36 4 42 33 54 61 27 67 22 67 -47z m1377 30 c-3 -21 1 -39 10 -50 14
-16 14 -18 0 -24 -10 -4 -32 7 -58 27 l-42 33 28 8 c16 4 33 14 37 23 16 27
31 17 25 -17z m-3273 -33 c3 -11 6 -53 6 -93 l0 -73 -67 3 -68 3 -3 106 -3
105 65 -15 c49 -12 66 -21 70 -36z m1429 -110 c9 -77 15 -194 15 -260 0 -66 7
-163 16 -217 9 -54 16 -121 16 -149 0 -47 -3 -54 -42 -91 -24 -22 -72 -68
-108 -102 -65 -62 -120 -103 -120 -89 0 5 39 77 85 162 53 97 89 176 96 210 8
40 10 148 5 381 -6 283 -5 323 8 310 9 -10 19 -65 29 -155z m-764 32 c76 -56
130 -102 125 -107 -19 -19 -228 -159 -232 -156 -2 2 -12 75 -23 163 -10 87
-22 171 -25 187 -7 35 -17 40 155 -87z m-487 69 c4 -6 8 -44 8 -83 l0 -73 -75
0 -75 0 0 59 c0 32 -3 72 -6 88 l-6 30 74 -5 c40 -2 76 -10 80 -16z m292 -43
c4 -38 9 -80 12 -95 5 -26 4 -27 -33 -21 -21 3 -41 8 -45 12 -3 3 -10 41 -15
83 -9 73 -8 77 11 81 62 12 63 12 70 -60z m-119 45 c2 -7 6 -43 8 -80 l5 -68
-68 0 -67 0 -7 46 c-3 26 -6 62 -6 80 l0 34 65 0 c44 0 67 -4 70 -12z m2700
-154 c102 -80 185 -149 185 -152 -1 -11 -378 -272 -394 -272 -8 0 -55 34 -106
75 l-92 75 36 0 c27 0 39 6 52 26 17 24 16 30 -11 132 -44 171 -47 152 36 211
40 28 81 51 91 51 10 0 101 -66 203 -146z m700 60 c41 -31 75 -64 75 -73 0
-41 -154 -431 -169 -431 -11 0 -365 278 -369 289 -3 9 365 271 381 271 4 0 41
-25 82 -56z m-2225 -25 c30 -11 88 -23 128 -26 67 -6 72 -7 72 -29 0 -19 -7
-24 -36 -30 -54 -10 -196 12 -211 33 -11 14 -19 73 -10 73 1 0 27 -9 57 -21z
m550 -32 c108 4 120 0 120 -41 0 -69 -21 -81 -83 -49 -18 9 -61 19 -97 22
l-65 6 -3 38 c-3 37 -3 38 25 30 15 -4 62 -7 103 -6z m-2320 -12 c29 -15 30
-17 30 -95 0 -44 -4 -80 -9 -80 -4 0 -22 5 -40 11 -26 9 -31 16 -31 42 0 43
12 137 17 137 2 0 17 -7 33 -15z m-390 -72 c49 -38 89 -73 90 -80 0 -7 -14
-61 -30 -120 -17 -59 -36 -148 -43 -198 l-13 -90 -76 -3 -75 -3 -182 127
c-100 69 -180 131 -178 138 5 15 388 295 405 295 8 1 53 -29 102 -66z m568
-61 l3 -103 -28 7 c-15 4 -44 14 -63 23 -35 16 -35 16 -38 90 -2 41 -1 79 1
85 3 8 25 10 63 6 l59 -5 3 -103z m-1324 -32 c107 -74 195 -137 195 -140 0 -5
-214 -162 -229 -168 -8 -3 -72 138 -114 250 -37 99 -66 200 -56 196 5 -2 96
-64 204 -138z m1690 113 c2 -16 8 -62 11 -104 l6 -77 -64 -11 c-98 -17 -93
-20 -100 57 -4 37 -7 88 -7 115 l0 47 74 0 c73 0 74 0 80 -27z m186 11 c5 -5
12 -46 16 -91 l7 -83 -54 0 c-30 0 -64 -3 -76 -6 -24 -7 -28 4 -39 125 l-6 74
72 -5 c39 -3 75 -9 80 -14z m465 -79 c61 -45 136 -100 168 -124 l58 -43 -175
-124 c-96 -68 -179 -124 -184 -124 -5 0 -60 35 -122 78 -123 84 -123 83 -133
192 l-6 65 126 87 c82 57 131 84 142 80 9 -3 66 -42 126 -87z m1563 -312 l-3
-138 -43 85 c-32 65 -45 104 -53 167 l-11 81 36 83 c20 45 44 94 53 108 18 25
18 23 21 -111 1 -76 1 -200 0 -275z m-2404 366 c3 -17 6 -68 6 -112 l0 -80
-66 6 c-36 2 -68 7 -71 11 -3 3 -8 51 -11 106 l-5 100 70 0 71 0 6 -31z m-448
-487 c-3 -2 -27 1 -54 7 -27 7 -63 13 -80 13 -18 1 -32 3 -32 6 0 3 37 110 83
238 l82 233 3 -246 c1 -135 0 -248 -2 -251z m1945 482 c129 -36 154 -130 80
-309 -42 -101 -55 -175 -47 -272 5 -53 3 -90 -4 -103 -6 -11 -39 -33 -73 -48
-34 -16 -83 -47 -110 -70 -26 -23 -64 -46 -85 -52 -56 -15 -147 -13 -162 5
-16 19 -7 31 43 57 23 11 71 49 107 82 36 34 82 74 102 89 26 19 41 40 48 68
11 41 10 59 -16 267 -24 192 -16 268 29 290 29 14 23 14 88 -4z m444 -25 c24
-6 61 -26 82 -43 34 -30 37 -37 41 -98 3 -48 -2 -88 -22 -160 -28 -104 -33
-180 -13 -216 7 -12 47 -45 89 -71 51 -33 89 -67 117 -105 63 -85 52 -118 -31
-91 -24 7 -55 16 -71 19 -15 4 -52 29 -81 56 -43 38 -65 50 -101 56 -69 10
-74 23 -73 189 1 117 -2 151 -20 205 -31 96 -35 133 -23 191 18 82 27 88 106
68z m1403 -208 c94 -74 172 -136 172 -140 -1 -7 -405 -300 -426 -308 -12 -4
-14 12 -14 96 l0 101 -91 0 -91 0 -68 53 c-38 28 -69 57 -70 62 0 17 373 274
395 271 11 -1 98 -62 193 -135z m-3644 75 c108 -41 224 -66 300 -66 31 0 102
9 158 20 128 25 234 35 240 24 3 -5 9 -33 13 -61 l7 -53 -59 0 c-32 0 -134
-11 -228 -25 -213 -32 -360 -41 -449 -27 -37 6 -71 14 -74 17 -9 9 -16 205 -7
205 4 0 48 -15 99 -34z m2886 -102 c66 -53 120 -100 120 -104 0 -5 -36 -34
-79 -64 -68 -48 -85 -56 -125 -56 l-46 0 0 160 c0 88 2 160 5 160 3 0 59 -43
125 -96z m-1508 -46 c-2 -40 -7 -98 -11 -128 l-6 -55 -170 -3 c-149 -2 -168
-1 -155 12 18 18 333 245 340 245 3 1 4 -32 2 -71z m-2180 -65 l170 -118 -77
-3 -76 -3 3 -111 3 -111 -88 -64 c-74 -55 -90 -63 -103 -52 -39 32 -259 390
-252 410 5 13 222 168 237 168 7 1 90 -52 183 -116z m1522 16 c15 -76 15 -76
-76 -71 -70 3 -107 -2 -235 -32 -142 -33 -311 -59 -445 -69 l-58 -4 0 78 0 78
128 -5 c126 -6 154 -4 467 41 50 7 118 13 151 14 61 1 62 1 68 -30z m1214
-111 c-3 -107 -9 -156 -23 -194 l-19 -52 30 -61 31 -61 -29 0 c-30 0 -147 37
-162 51 -5 5 10 17 37 28 61 26 69 45 61 134 -7 78 5 157 38 245 32 87 41 66
36 -90z m-1038 48 l105 -71 -109 -3 c-60 -1 -110 -1 -111 0 -2 2 -6 39 -10 82
-6 66 -5 77 6 71 8 -5 61 -40 119 -79z m2192 -7 c29 -23 57 -46 63 -50 5 -5
-52 -9 -130 -9 l-139 0 70 50 c38 27 72 49 76 50 3 0 30 -19 60 -41z m711 -36
c-73 -135 -215 -353 -229 -353 -3 0 -40 28 -81 62 -70 57 -75 63 -57 75 10 6
102 73 204 147 102 74 188 135 192 136 4 0 -9 -30 -29 -67z m-2283 -19 c-21
-55 -185 -334 -197 -334 -7 0 -30 26 -52 59 -40 59 -60 74 -83 66 -7 -3 -26
-1 -43 3 -28 8 -22 12 105 79 74 40 166 92 205 117 38 24 71 43 73 42 1 -2 -2
-16 -8 -32z m-826 7 c60 -13 56 -123 -7 -161 -38 -23 -88 -34 -119 -27 -21 6
-23 13 -26 80 -3 71 -2 76 24 96 27 21 68 25 128 12z m-879 -46 l40 -12 -48
-8 c-50 -8 -133 -2 -145 10 -4 3 2 13 12 21 21 15 67 11 141 -11z m646 -5 c24
-20 24 -20 4 -36 -31 -25 -118 -64 -142 -64 -21 0 -23 5 -23 49 l0 50 43 9
c67 15 93 13 118 -8z m-194 -85 c-4 -41 -12 -96 -18 -121 -11 -42 -14 -45 -38
-39 -14 4 -27 8 -29 10 -2 2 1 35 7 74 6 38 11 88 11 110 0 40 1 41 36 41 l37
0 -6 -75z m3013 70 c0 -6 -320 -359 -329 -363 -4 -1 -31 58 -60 131 -49 127
-73 166 -113 180 -11 4 -18 17 -18 32 l0 25 260 0 c143 0 260 -2 260 -5z
m-3750 -12 c0 -5 -7 -17 -15 -27 -44 -58 2 -142 125 -228 25 -17 63 -51 86
-75 l40 -43 -45 0 -46 0 -190 190 -190 190 118 0 c64 0 117 -3 117 -7z m640
-37 c0 -50 -17 -147 -28 -157 -4 -4 -76 -1 -161 7 -85 8 -155 13 -157 11 -7
-7 80 -103 104 -116 34 -17 52 -39 52 -64 0 -18 -5 -19 -71 -13 -92 8 -128 24
-168 75 -19 23 -57 57 -86 75 -81 52 -115 106 -101 160 3 14 14 27 24 30 10 3
114 8 232 11 118 3 240 9 270 14 95 14 90 16 90 -33z m1090 40 c0 -2 -52 -32
-115 -67 -63 -35 -114 -68 -112 -74 6 -16 49 -35 83 -35 55 0 93 -20 124 -65
35 -51 75 -77 149 -99 106 -31 175 -18 288 55 l32 20 88 -30 c48 -16 106 -33
128 -36 22 -4 47 -9 56 -11 9 -2 42 15 73 40 l57 44 52 -15 c29 -9 111 -17
187 -20 74 -3 159 -7 188 -10 67 -6 85 7 80 59 -2 21 -2 38 0 38 7 0 191 -142
203 -156 10 -12 -208 -14 -1394 -14 l-1404 0 -6 29 c-4 20 -20 39 -50 60 -25
17 -47 38 -51 47 -6 15 1 16 72 10 42 -3 131 -15 197 -26 214 -35 288 -23 330
53 18 34 24 37 65 37 100 0 180 48 201 121 l12 38 101 4 c178 5 366 7 366 3z
m2069 -203 c0 -40 -1 -73 -3 -73 -3 0 -16 4 -30 10 -17 6 -35 6 -53 -1 -21 -8
-30 -6 -47 10 -12 11 -34 21 -50 23 -29 3 -28 4 70 116 l99 113 6 -63 c4 -35
7 -96 8 -135z m-3900 -30 c-16 -7 -34 -21 -41 -32 -9 -15 -16 -17 -39 -9 -19
6 -34 6 -48 -2 -21 -11 -21 -9 -21 117 l0 128 89 -95 89 -95 -29 -12z m1074
178 c2 -11 2 -35 -2 -53 -6 -28 -13 -35 -50 -47 -32 -10 -59 -11 -100 -5 -76
12 -74 32 8 61 35 12 78 32 95 43 39 25 42 25 49 1z m3056 -234 c1 -5 -34 -49
-76 -99 -64 -75 -78 -87 -84 -71 -4 10 -8 85 -8 166 l-1 148 84 -68 c47 -37
85 -72 85 -76z m-1533 93 c24 -17 44 -35 44 -40 0 -5 -16 -21 -36 -36 -39 -31
-38 -31 -75 39 -37 70 -7 87 67 37z m-1618 10 c61 0 67 -15 15 -37 -27 -11
-53 -13 -92 -9 -30 4 -56 8 -58 9 -1 2 1 13 4 26 5 20 10 22 42 17 20 -3 60
-6 89 -6z m-1178 -171 c0 -97 -4 -158 -9 -154 -15 8 -161 185 -161 193 0 6
158 122 167 122 2 0 3 -72 3 -161z m287 66 c31 -31 34 -40 32 -79 -3 -42 0
-48 36 -79 46 -40 52 -83 15 -122 -25 -27 -77 -34 -98 -13 -9 9 -13 7 -18 -8
-32 -89 -144 -61 -144 36 0 23 4 49 10 59 7 15 1 24 -35 49 -49 34 -64 70 -46
108 16 35 49 45 91 27 27 -11 36 -11 39 -2 7 22 49 59 67 59 9 0 32 -16 51
-35z m3671 -4 c16 -27 19 -28 42 -15 31 17 72 18 88 2 29 -29 7 -112 -39 -145
-14 -11 -16 -24 -12 -73 4 -45 2 -65 -11 -85 -24 -36 -69 -34 -105 6 -18 19
-31 27 -35 20 -4 -6 -20 -11 -36 -11 -60 0 -84 99 -35 144 20 19 25 33 25 72
0 67 29 114 70 114 23 0 35 -7 48 -29z m-172 -144 c-15 -19 -26 -44 -26 -55 0
-25 0 -25 -34 -12 -18 6 -26 17 -26 33 0 12 -7 33 -16 45 -15 21 -14 22 15 22
23 0 38 10 68 46 l38 45 3 -45 c2 -37 -2 -53 -22 -79z m-3308 30 c45 5 51 0
27 -23 -8 -9 -18 -27 -22 -42 -12 -52 -44 -56 -62 -7 -7 20 -26 45 -42 57 -22
17 -29 30 -29 57 l0 35 43 -40 c38 -38 46 -41 85 -37z m1573 -23 c-12 -15 -21
-40 -21 -55 0 -21 -5 -29 -17 -29 -10 0 -32 -9 -50 -19 -27 -17 -33 -18 -43
-5 -7 8 -26 14 -42 14 -16 0 -30 6 -32 13 -4 16 -22 68 -31 90 -7 16 3 17 125
17 l131 0 -20 -26z m360 -8 c-12 -18 -21 -43 -21 -55 0 -15 -6 -21 -23 -21
-13 0 -32 -6 -42 -14 -15 -11 -22 -11 -44 0 -14 8 -31 14 -37 14 -7 0 -15 15
-18 34 -4 19 -13 39 -21 46 -30 25 -12 30 106 30 l121 0 -21 -34z m369 26 c0
-4 -4 -12 -9 -17 -5 -6 -13 -26 -18 -45 -6 -23 -16 -36 -29 -39 -10 -1 -26 -9
-35 -17 -13 -12 -18 -12 -35 1 -10 8 -29 15 -41 15 -17 0 -23 6 -23 23 -1 12
-7 33 -15 47 -8 14 -14 28 -15 33 0 4 50 7 110 7 61 0 110 -4 110 -8z m370 -7
c-7 -8 -15 -29 -19 -47 -5 -24 -14 -34 -35 -39 -15 -4 -36 -15 -45 -23 -27
-24 -87 8 -100 53 -6 18 -18 42 -27 52 -17 19 -14 19 111 19 112 0 126 -2 115
-15z m375 -2 c-4 -10 -11 -30 -17 -45 -6 -17 -19 -29 -38 -33 -15 -3 -36 -15
-45 -25 -17 -19 -18 -19 -43 0 -13 11 -33 20 -43 20 -14 0 -19 7 -19 29 0 16
-7 34 -15 41 -8 7 -15 16 -15 21 0 5 54 9 121 9 111 0 121 -1 114 -17z m-2613
-10 c-12 -10 -25 -34 -30 -53 -6 -27 -14 -36 -38 -40 -16 -4 -39 -12 -51 -18
-16 -9 -22 -9 -26 2 -3 7 -19 16 -36 19 -23 5 -31 12 -31 27 0 24 -18 61 -34
72 -6 4 51 8 128 8 133 0 137 -1 118 -17z m349 -31 c-13 -41 -22 -51 -51 -61
-44 -15 -47 -15 -92 1 -29 10 -38 18 -38 36 0 13 -11 34 -25 47 l-24 25 123 0
123 0 -16 -48z m403 40 c-15 -10 -34 -47 -34 -69 -1 -11 -18 -26 -48 -40 -41
-20 -48 -20 -62 -8 -9 8 -26 15 -38 15 -17 0 -22 6 -22 25 0 15 -7 39 -15 55
l-16 30 123 0 c68 0 118 -4 112 -8z m1974 -8 c13 -9 24 -30 28 -53 5 -34 11
-40 45 -50 43 -13 59 -35 59 -79 0 -33 -22 -57 -61 -67 -23 -6 -28 -14 -34
-52 -3 -24 -15 -53 -26 -64 -41 -41 -107 -11 -118 56 -5 34 -10 39 -46 49 -47
14 -70 50 -60 96 8 35 48 70 80 70 18 0 24 7 29 39 6 40 35 71 66 71 9 0 26
-7 38 -16z m-3001 -9 c14 -10 24 -31 29 -60 5 -39 10 -45 30 -45 37 0 64 -34
64 -80 0 -44 -23 -75 -64 -86 -19 -4 -25 -14 -30 -47 -9 -55 -30 -77 -76 -77
-46 0 -70 24 -77 79 -5 40 -7 41 -44 41 -47 0 -69 27 -69 87 0 52 23 79 74 89
30 5 36 11 36 31 0 67 73 106 127 68z m1144 -4 c12 -10 28 -36 34 -57 9 -32
16 -39 45 -45 43 -9 60 -32 60 -81 0 -47 -28 -78 -70 -78 -29 0 -30 -2 -30
-44 0 -36 -5 -48 -26 -65 -15 -12 -38 -21 -51 -21 -33 0 -70 40 -78 84 -4 20
-13 36 -21 36 -26 0 -62 23 -73 47 -26 56 -2 108 54 119 32 6 35 9 35 41 0 67
71 105 121 64z m757 -4 c7 -5 15 -26 18 -46 5 -33 11 -39 47 -52 78 -27 78
-113 -1 -137 -41 -14 -42 -15 -42 -58 0 -58 -28 -89 -74 -80 -40 8 -66 40 -66
81 0 29 -3 33 -35 39 -90 17 -86 156 5 156 27 0 30 3 30 31 0 73 64 109 118
66z m357 -2 c17 -16 25 -35 25 -60 0 -32 2 -35 30 -35 86 0 96 -136 11 -155
-23 -5 -30 -13 -34 -42 -8 -50 -33 -73 -77 -73 -46 0 -70 24 -77 79 -4 30 -10
41 -23 41 -28 0 -59 32 -66 67 -5 26 -1 37 19 57 15 14 38 26 52 26 22 0 25 4
25 38 0 42 6 54 35 70 31 18 54 14 80 -13z m375 5 c12 -12 20 -33 20 -55 0
-30 3 -35 24 -35 13 0 35 -9 50 -21 48 -38 28 -120 -34 -132 -25 -6 -30 -11
-30 -36 0 -69 -35 -102 -95 -87 -28 7 -55 52 -55 91 0 21 -5 25 -30 25 -92 0
-92 145 1 165 31 7 33 9 43 58 10 45 72 61 106 27z m-2240 -10 c18 -18 24 -39
23 -77 -1 -8 11 -13 28 -13 67 0 97 -97 43 -139 -15 -12 -37 -21 -50 -21 -21
0 -24 -5 -24 -40 0 -80 -84 -121 -129 -64 -12 15 -21 41 -21 61 0 34 -3 36
-53 48 -36 7 -62 61 -48 99 13 32 48 56 83 56 25 0 28 4 28 33 0 18 7 43 16
55 20 29 76 30 104 2z m366 12 c17 -11 34 -48 34 -75 0 -20 6 -26 32 -31 47
-9 68 -33 68 -77 0 -44 -25 -74 -70 -82 -24 -5 -29 -12 -35 -48 -13 -76 -72
-103 -120 -54 -17 16 -25 35 -25 59 0 30 -4 35 -29 41 -42 9 -66 40 -66 85 0
45 24 76 66 85 20 5 29 13 29 26 0 23 18 61 34 71 6 4 25 8 41 8 17 0 35 -4
41 -8z m770 0 c18 -11 34 -48 34 -76 0 -21 5 -26 24 -26 32 0 65 -29 67 -60 5
-60 0 -71 -41 -88 -33 -14 -40 -22 -40 -45 0 -30 -16 -67 -34 -79 -6 -4 -25
-8 -43 -8 -34 0 -73 37 -73 71 0 34 -12 49 -40 49 -33 0 -57 21 -66 57 -11 43
7 76 53 98 32 15 44 26 49 50 3 16 13 38 22 48 15 17 68 23 88 9z m1927 -74
c-17 -19 -18 -19 -25 8 -6 22 -2 34 15 52 l22 24 3 -32 c2 -20 -3 -39 -15 -52z
m-4019 39 c15 -11 17 -21 11 -47 l-7 -34 -19 23 c-19 23 -26 71 -11 71 5 0 16
-6 26 -13z m288 -161 c4 -6 8 -21 8 -34 0 -33 43 -72 78 -72 26 0 30 -4 35
-36 4 -20 16 -47 28 -60 l22 -24 -40 0 c-45 0 -76 20 -206 129 -69 57 -76 66
-58 73 11 4 26 16 32 26 10 16 20 19 53 14 23 -3 44 -10 48 -16z m3554 -7 c19
-21 19 -21 -29 -64 -98 -90 -167 -135 -204 -135 l-35 0 31 35 c21 24 31 46 31
68 0 28 4 34 33 42 21 7 37 20 47 42 14 30 19 33 61 33 34 0 51 -5 65 -21z
m-1191 -79 c7 0 15 -15 19 -32 3 -18 21 -47 38 -65 l32 -33 -133 0 -132 0 20
27 c12 14 24 42 27 62 4 26 15 42 38 57 30 20 32 20 55 2 13 -10 29 -18 36
-18z m758 0 c10 0 17 -8 17 -20 0 -26 27 -80 40 -80 6 0 10 -4 10 -10 0 -6
-52 -10 -137 -10 l-136 0 21 23 c12 12 25 39 29 60 6 29 16 41 43 55 33 17 36
17 65 0 17 -10 38 -18 48 -18z m-2627 -10 c6 0 14 -18 17 -41 3 -23 15 -52 28
-65 l22 -24 -131 0 c-73 0 -132 3 -132 6 0 3 9 17 20 31 11 14 20 39 20 54 0
23 7 31 35 43 19 8 35 20 35 26 0 5 17 1 37 -10 21 -11 43 -20 49 -20z m374 0
c13 0 19 -11 24 -40 3 -22 15 -49 26 -60 20 -20 20 -20 -115 -20 l-134 0 24
24 c14 14 27 42 31 65 5 29 11 41 23 41 10 0 26 6 36 14 17 12 22 12 44 -5 13
-10 32 -19 41 -19z m376 1 c17 -4 30 -15 32 -27 6 -40 24 -72 45 -82 17 -8
-15 -11 -127 -11 l-149 -1 22 24 c12 13 24 40 28 60 4 25 11 36 23 36 10 0 28
9 41 19 21 17 26 18 40 5 9 -9 30 -19 45 -23z m392 -3 c18 -2 28 -14 38 -43 7
-22 23 -48 35 -57 20 -17 16 -18 -124 -18 l-146 0 24 26 c16 17 25 39 25 60 0
30 3 34 36 40 19 4 38 13 41 21 5 11 10 10 27 -6 11 -10 32 -21 44 -23z m1062
27 c7 -8 23 -15 35 -15 17 0 24 -7 29 -32 3 -18 18 -45 33 -60 l27 -28 -143 0
c-138 0 -142 1 -122 18 11 9 27 34 34 55 8 25 23 43 47 56 45 24 45 24 60 6z
m-730 -10 c7 -8 23 -15 36 -15 19 0 24 -5 24 -26 0 -16 13 -39 34 -60 l34 -34
-135 0 -135 0 26 31 c14 17 26 43 26 57 0 20 9 31 33 43 42 21 43 21 57 4z
m1335 -201 c-25 -21 -203 -132 -310 -195 l-30 -17 -143 114 -144 113 79 4 c43
1 191 4 328 5 l250 1 -30 -25z m-2145 -128 c96 -78 175 -147 175 -154 0 -6
-48 -44 -106 -85 l-106 -74 -94 23 c-123 31 -169 46 -322 106 -70 28 -127 54
-125 59 4 12 379 269 392 269 6 -1 90 -65 186 -144z m851 -3 c104 -81 188
-150 187 -155 -2 -4 -67 -55 -146 -113 l-142 -105 -124 0 -123 0 -136 108
c-75 59 -136 110 -137 113 0 8 411 299 423 299 5 0 94 -66 198 -147z m593 138
c-49 -44 -362 -264 -377 -265 -19 -1 -355 251 -356 267 -1 4 166 7 371 7 207
0 368 -4 362 -9z m200 -115 l139 -111 -99 -47 c-98 -46 -387 -148 -421 -148
-21 0 -168 115 -168 130 0 16 388 299 400 292 6 -3 73 -56 149 -116z m-1914
100 c-8 -8 -88 -64 -178 -126 l-163 -112 -87 42 c-97 46 -271 148 -317 186
l-30 24 395 0 c337 0 392 -2 380 -14z m859 10 c-46 -41 -367 -256 -383 -256
-12 1 -89 57 -179 130 l-159 130 363 0 c199 0 360 -2 358 -4z m-246 -403 c99
-81 116 -99 98 -101 -52 -8 -444 45 -439 59 6 16 184 138 202 139 10 0 72 -44
139 -97z m805 40 c39 -32 71 -61 71 -64 2 -13 -369 -74 -404 -67 -18 3 229
188 251 188 7 0 44 -26 82 -57z"/>
<path d="M4907 5832 c-33 -36 -9 -82 42 -82 34 0 51 17 51 50 0 14 -5 31 -12
38 -18 18 -63 14 -81 -6z m68 -32 c0 -20 -6 -26 -26 -28 -30 -4 -46 22 -28 45
20 23 54 12 54 -17z"/>
<path d="M5274 5555 c-20 -30 -11 -62 21 -77 52 -23 99 46 59 86 -23 24 -61
20 -80 -9z m70 -17 c8 -14 7 -21 -5 -33 -28 -29 -73 11 -48 42 15 17 38 13 53
-9z"/>
<path d="M1752 5384 c-26 -18 -29 -56 -6 -78 39 -40 105 4 85 56 -8 22 -29 38
-50 38 -3 0 -17 -7 -29 -16z m53 -20 c18 -18 16 -33 -7 -47 -35 -22 -66 21
-36 51 16 16 23 15 43 -4z"/>
<path d="M2566 5354 c-26 -25 -20 -72 9 -86 41 -18 75 3 75 46 0 51 -50 75
-84 40z m63 -23 c7 -13 6 -23 -3 -36 -18 -25 -56 -11 -56 20 0 36 42 48 59 16z"/>
<path d="M3354 5335 c-21 -33 -6 -72 31 -81 50 -13 86 53 49 90 -24 24 -61 20
-80 -9z m64 -4 c18 -11 12 -41 -11 -55 -25 -15 -51 18 -36 45 10 20 26 24 47
10z"/>
<path d="M5654 5275 c-21 -33 -6 -72 31 -81 50 -13 86 53 49 90 -24 24 -61 20
-80 -9z m71 -24 c0 -34 -32 -52 -50 -27 -19 25 -2 58 28 54 16 -2 22 -10 22
-27z"/>
<path d="M1342 5094 c-26 -18 -29 -56 -6 -78 39 -40 105 4 85 56 -8 22 -29 38
-50 38 -3 0 -17 -7 -29 -16z m53 -20 c18 -18 16 -33 -7 -47 -35 -22 -66 21
-36 51 16 16 23 15 43 -4z"/>
<path d="M2957 5042 c-43 -47 1 -110 58 -84 48 22 29 102 -25 102 -9 0 -24 -8
-33 -18z m57 -18 c22 -21 3 -56 -27 -52 -37 5 -33 67 5 68 4 0 14 -7 22 -16z"/>
<path d="M5260 5000 c-11 -11 -20 -28 -20 -38 0 -24 31 -52 57 -52 23 0 53 30
53 53 0 21 -35 57 -55 57 -8 0 -24 -9 -35 -20z m64 -22 c8 -14 7 -21 -6 -34
-30 -30 -75 9 -48 42 16 18 39 15 54 -8z"/>
<path d="M3832 5013 c2 -10 10 -18 18 -18 8 0 16 8 18 18 2 12 -3 17 -18 17
-15 0 -20 -5 -18 -17z"/>
<path d="M3916 4895 c-3 -9 1 -18 10 -22 19 -7 39 11 30 26 -10 16 -33 13 -40
-4z"/>
<path d="M1728 4765 c-18 -41 3 -75 46 -75 36 0 56 20 56 54 0 47 -82 64 -102
21z m76 -10 c9 -25 -5 -45 -30 -45 -26 0 -40 20 -30 45 3 8 16 15 30 15 13 0
26 -7 30 -15z"/>
<path d="M3330 4740 c-24 -24 -25 -38 -4 -68 18 -27 55 -29 77 -4 22 24 21 55
-1 75 -25 22 -48 21 -72 -3z m64 -22 c8 -14 7 -21 -6 -34 -30 -30 -75 9 -48
42 16 18 39 15 54 -8z"/>
<path d="M5652 4698 c-7 -7 -12 -24 -12 -38 0 -34 17 -50 52 -50 18 0 33 8 44
25 15 23 15 27 0 50 -18 27 -63 34 -84 13z m68 -23 c10 -12 10 -18 0 -30 -27
-32 -71 -8 -56 30 3 8 14 15 24 15 11 0 25 -7 32 -15z"/>
<path d="M3925 4740 c-4 -7 -3 -16 3 -22 14 -14 45 -2 40 15 -6 16 -34 21 -43
7z"/>
<path d="M1332 4508 c-7 -7 -12 -24 -12 -38 0 -34 17 -50 52 -50 18 0 33 8 44
25 15 23 15 27 0 50 -18 27 -63 34 -84 13z m72 -24 c8 -21 -11 -44 -36 -44
-21 0 -33 22 -24 45 7 20 52 19 60 -1z"/>
<path d="M2920 4460 c-24 -24 -26 -53 -4 -74 31 -32 94 -7 94 37 0 21 -35 57
-55 57 -8 0 -24 -9 -35 -20z m56 -14 c15 -12 17 -18 8 -33 -16 -27 -51 -29
-59 -3 -6 20 9 50 24 50 4 0 16 -6 27 -14z"/>
<path d="M6070 4400 c-11 -11 -20 -27 -20 -35 0 -21 36 -55 58 -55 24 0 52 31
52 57 0 23 -30 53 -53 53 -9 0 -26 -9 -37 -20z m63 -22 c8 -12 7 -21 -2 -32
-18 -22 -38 -20 -51 5 -22 40 29 66 53 27z"/>
<path d="M5236 4417 c-38 -28 -13 -97 35 -97 45 0 68 79 30 100 -26 13 -43 13
-65 -3z m62 -36 c6 -37 -26 -52 -52 -25 -12 12 -13 20 -5 35 15 28 53 21 57
-10z"/>
<path d="M3926 4164 c-8 -21 1 -34 24 -34 10 0 21 4 24 9 10 16 -5 41 -24 41
-10 0 -21 -7 -24 -16z"/>
<path d="M4014 4085 c-8 -19 3 -35 26 -35 19 0 30 17 23 38 -6 17 -42 15 -49
-3z"/>
<path d="M4123 4024 c-3 -8 -1 -20 5 -26 16 -16 42 -2 42 22 0 24 -38 28 -47
4z"/>
<path d="M4250 4004 c-11 -12 -10 -18 3 -32 16 -15 18 -15 34 0 13 14 14 20 3
32 -7 9 -16 16 -20 16 -4 0 -13 -7 -20 -16z"/>
<path d="M4377 4014 c-4 -4 -7 -16 -7 -26 0 -13 7 -18 26 -18 21 0 25 4 22 22
-3 23 -27 35 -41 22z"/>
<path d="M4524 4046 c-8 -21 3 -36 27 -36 15 0 20 6 17 22 -4 27 -35 37 -44
14z"/>
<path d="M2440 3869 c0 -14 5 -19 17 -17 26 5 29 38 4 38 -15 0 -21 -6 -21
-21z"/>
<path d="M3994 3865 c-7 -18 3 -35 21 -35 15 0 24 19 18 38 -6 17 -32 15 -39
-3z"/>
<path d="M4140 3801 c0 -24 25 -34 40 -16 15 18 5 35 -21 35 -12 0 -19 -7 -19
-19z"/>
<path d="M4464 3799 c-10 -17 23 -46 37 -32 7 7 9 19 6 27 -7 18 -33 21 -43 5z"/>
<path d="M4304 3795 c-4 -9 -2 -21 4 -27 15 -15 44 -1 40 19 -4 23 -36 29 -44
8z"/>
<path d="M2407 3774 c-4 -4 -7 -16 -7 -26 0 -20 25 -25 36 -7 8 13 -19 43 -29
33z"/>
<path d="M3867 3683 c-15 -14 -7 -43 12 -43 23 0 34 23 18 39 -13 13 -21 14
-30 4z"/>
<path d="M2344 3659 c-9 -15 11 -33 30 -26 9 4 13 13 10 22 -7 17 -30 20 -40
4z"/>
<path d="M4024 3595 c-4 -9 -2 -21 4 -27 15 -15 44 -1 40 19 -4 23 -36 29 -44
8z"/>
<path d="M4209 3544 c-9 -11 -9 -18 -1 -26 14 -14 42 -3 42 16 0 20 -27 27
-41 10z"/>
<path d="M4394 3535 c-4 -9 -2 -21 4 -27 15 -15 44 -1 40 19 -4 23 -36 29 -44
8z"/>
<path d="M6088 3229 c-25 -14 -24 -75 1 -89 43 -23 81 1 81 50 0 42 -43 62
-82 39z m60 -40 c3 -28 -16 -43 -43 -33 -15 6 -21 45 -8 58 16 16 48 1 51 -25z"/>
<path d="M788 3109 c-22 -13 -24 -62 -2 -83 34 -34 84 -8 84 44 0 42 -43 62
-82 39z m60 -40 c3 -28 -16 -43 -43 -33 -15 6 -21 45 -8 58 16 16 48 1 51 -25z"/>
<path d="M1670 3100 c-25 -25 -26 -52 -2 -73 24 -22 55 -21 75 1 23 26 21 58
-5 76 -30 21 -44 20 -68 -4z m64 -22 c8 -14 7 -21 -6 -34 -30 -30 -75 9 -48
42 16 18 39 15 54 -8z"/>
<path d="M3210 3050 c-25 -25 -26 -52 -2 -73 24 -22 55 -21 75 1 23 26 21 58
-5 76 -30 21 -44 20 -68 -4z m60 -15 c17 -21 3 -57 -22 -53 -30 4 -45 32 -29
52 17 20 35 20 51 1z"/>
<path d="M2194 3146 c-8 -21 3 -36 27 -36 15 0 20 6 17 22 -4 27 -35 37 -44
14z"/>
<path d="M2294 3095 c-8 -19 3 -35 26 -35 19 0 30 17 23 38 -6 17 -42 15 -49
-3z"/>
<path d="M2410 3055 c0 -22 4 -26 23 -23 14 2 22 10 22 23 0 13 -8 21 -22 23
-19 3 -23 -1 -23 -23z"/>
<path d="M2531 3051 c-13 -23 8 -45 33 -35 19 7 21 25 4 42 -17 17 -26 15 -37
-7z"/>
<path d="M2774 3055 c-8 -19 3 -35 26 -35 19 0 30 17 23 38 -6 17 -42 15 -49
-3z"/>
<path d="M2653 3044 c-3 -8 -1 -20 5 -26 16 -16 42 -2 42 22 0 24 -38 28 -47
4z"/>
<path d="M2174 2905 c-8 -19 12 -36 33 -28 19 7 12 37 -10 41 -9 2 -20 -4 -23
-13z"/>
<path d="M1222 2788 c-15 -15 -15 -61 0 -76 7 -7 24 -12 38 -12 33 0 50 17 50
50 0 33 -17 50 -50 50 -14 0 -31 -5 -38 -12z m63 -38 c0 -18 -6 -26 -23 -28
-24 -4 -38 18 -28 44 3 9 15 14 28 12 17 -2 23 -10 23 -28z"/>
<path d="M2340 2861 c0 -27 19 -36 37 -18 18 18 9 37 -18 37 -12 0 -19 -7 -19
-19z"/>
<path d="M2515 2860 c-9 -15 14 -40 31 -33 22 8 18 43 -5 43 -11 0 -23 -5 -26
-10z"/>
<path d="M2694 2855 c-8 -19 12 -36 33 -28 19 7 12 37 -10 41 -9 2 -20 -4 -23
-13z"/>
<path d="M5242 2674 c-28 -20 -30 -69 -3 -84 32 -16 59 -12 76 14 24 36 -2 86
-44 86 -3 0 -17 -7 -29 -16z m53 -20 c18 -18 16 -33 -7 -47 -35 -22 -66 21
-36 51 16 16 23 15 43 -4z"/>
<path d="M6042 2658 c-21 -21 -14 -66 13 -84 23 -15 27 -15 50 0 17 11 25 26
25 44 0 35 -16 52 -50 52 -14 0 -31 -5 -38 -12z m66 -34 c4 -29 -23 -51 -43
-34 -16 13 -20 42 -8 54 14 14 48 1 51 -20z"/>
<path d="M1634 2485 c-20 -30 -11 -62 21 -77 52 -23 99 46 59 86 -23 24 -61
20 -80 -9z m60 -1 c19 -7 21 -35 4 -52 -16 -16 -23 -15 -42 4 -12 12 -13 20
-6 35 11 20 19 23 44 13z"/>
<path d="M2275 2650 c-9 -15 4 -30 26 -30 12 0 19 7 19 20 0 21 -33 29 -45 10z"/>
<path d="M2630 2631 c0 -24 25 -34 40 -16 15 18 5 35 -21 35 -12 0 -19 -7 -19
-19z"/>
<path d="M2825 2651 c-9 -16 3 -31 26 -31 14 0 19 6 17 17 -4 20 -33 29 -43
14z"/>
<path d="M3210 2510 c-24 -24 -25 -38 -4 -68 29 -41 94 -19 94 33 0 24 -33 55
-57 55 -7 0 -22 -9 -33 -20z m58 -12 c30 -30 -1 -73 -36 -51 -23 14 -25 29 -7
47 20 19 27 20 43 4z"/>
<path d="M2444 2629 c-10 -17 23 -46 37 -32 7 7 9 19 6 27 -7 18 -33 21 -43 5z"/>
<path d="M5630 2345 c-30 -36 -4 -95 40 -95 23 0 50 32 50 58 0 44 -62 70 -90
37z m58 -14 c18 -11 12 -41 -11 -55 -25 -15 -51 18 -36 45 10 20 26 24 47 10z"/>
<path d="M1202 2178 c-15 -15 -15 -61 0 -76 21 -21 66 -14 84 13 15 23 15 27
0 50 -18 27 -63 34 -84 13z m67 -22 c17 -20 2 -46 -25 -46 -26 0 -40 20 -30
45 7 19 40 20 55 1z"/>
<path d="M1652 1718 c-28 -28 -7 -78 34 -78 34 0 46 47 18 74 -19 19 -36 20
-52 4z"/>
<path d="M5370 1721 c-14 -27 -13 -47 6 -65 39 -39 90 6 66 59 -14 31 -56 34
-72 6z"/>
<path d="M5027 1552 c-22 -24 -21 -45 3 -67 45 -40 105 20 65 65 -23 25 -47
25 -68 2z"/>
<path d="M2028 1553 c-22 -5 -35 -50 -21 -72 13 -21 57 -26 72 -7 27 33 -9 89
-51 79z"/>
<path d="M3158 1540 c-19 -15 -21 -22 -13 -46 13 -37 53 -44 80 -14 39 43 -22
97 -67 60z"/>
<path d="M3909 1539 c-18 -34 3 -69 41 -69 22 0 33 6 41 24 16 35 -3 66 -41
66 -20 0 -33 -7 -41 -21z"/>
<path d="M4272 1548 c-29 -29 -7 -78 34 -78 42 0 63 59 30 82 -17 12 -51 9
-64 -4z"/>
<path d="M4648 1559 c-29 -16 -23 -67 8 -81 33 -15 58 -1 62 38 5 43 -32 66
-70 43z"/>
<path d="M2408 1539 c-43 -25 -7 -99 39 -82 37 14 46 65 14 83 -24 12 -31 12
-53 -1z"/>
<path d="M2798 1552 c-22 -4 -35 -49 -21 -71 6 -9 23 -16 38 -16 34 0 50 23
42 57 -7 26 -28 37 -59 30z"/>
<path d="M3561 1544 c-38 -27 -22 -84 25 -84 29 0 46 23 42 56 -4 34 -37 48
-67 28z"/>
<path d="M2732 978 c-7 -7 -12 -24 -12 -38 0 -33 17 -50 50 -50 48 0 70 38 45
76 -17 26 -62 33 -83 12z m67 -22 c17 -20 2 -46 -25 -46 -26 0 -40 20 -30 45
7 19 40 20 55 1z"/>
<path d="M3576 974 c-40 -40 7 -109 59 -86 32 15 41 47 21 77 -19 29 -57 33
-80 9z m68 -27 c9 -15 7 -21 -9 -33 -22 -16 -34 -14 -49 8 -7 12 -6 21 4 33
16 19 39 16 54 -8z"/>
<path d="M4426 987 c-21 -16 -24 -60 -6 -82 18 -22 67 -19 80 4 16 31 12 59
-12 75 -27 19 -39 20 -62 3z m57 -29 c14 -21 2 -48 -22 -48 -30 0 -45 34 -25
55 18 18 33 16 47 -7z"/>
<path d="M3157 6883 c-25 -26 -29 -27 -59 -14 -83 35 -166 21 -199 -33 -10
-17 -19 -42 -19 -55 0 -34 36 -87 76 -111 18 -12 34 -29 34 -38 0 -29 -74
-146 -103 -162 -24 -13 -30 -13 -54 0 -24 14 -33 33 -66 148 -22 73 -36 139
-33 147 3 8 23 19 45 25 39 10 53 31 31 45 -5 3 -62 -8 -126 -25 -64 -16 -119
-30 -120 -30 -2 0 -4 -9 -4 -21 0 -18 5 -20 38 -17 37 3 37 3 55 -52 31 -92
66 -241 61 -255 -3 -7 -16 -16 -30 -19 -15 -4 -24 -14 -24 -26 0 -24 11 -25
76 -6 27 8 78 20 114 26 36 7 77 21 92 31 31 22 51 24 79 8 28 -15 111 -15
147 0 38 16 66 70 57 110 -5 25 -79 111 -94 111 -4 0 -12 4 -19 9 -10 6 -1 29
38 97 29 49 56 94 62 101 11 14 3 33 -15 33 -7 0 -25 -12 -40 -27z m-72 -74
c19 -19 19 -19 -2 -56 -12 -21 -25 -39 -30 -40 -15 -5 -83 58 -83 77 0 47 73
59 115 19z m37 -250 c16 -22 18 -30 9 -48 -14 -26 -66 -29 -99 -5 -26 18 -27
29 -7 78 l16 37 31 -18 c17 -10 40 -30 50 -44z"/>
<path d="M4182 6845 c-28 -21 -52 -66 -52 -101 0 -15 10 -48 21 -72 l22 -44
-77 -77 c-89 -90 -103 -132 -32 -100 21 10 31 7 72 -19 80 -53 148 -54 204 -2
23 21 30 37 30 64 0 36 -30 109 -50 121 -19 12 -9 24 80 95 107 86 121 120 34
88 -29 -10 -35 -8 -78 22 -56 40 -136 52 -174 25z m143 -70 c33 -32 31 -48 -9
-79 -43 -32 -50 -32 -75 0 -56 71 21 143 84 79z m-66 -220 c17 -20 31 -43 31
-52 0 -23 -39 -63 -61 -63 -22 0 -89 57 -89 75 0 14 65 75 79 75 5 0 23 -16
40 -35z"/>
<path d="M2463 6755 c-16 -34 -19 -35 -73 -35 -77 0 -154 -24 -179 -57 -28
-34 -28 -101 -1 -136 11 -14 40 -33 65 -43 l45 -17 -7 -41 c-3 -22 -14 -75
-24 -116 -9 -41 -15 -78 -13 -82 12 -19 35 -5 48 27 l15 35 78 0 c60 0 86 5
110 20 40 24 63 67 63 118 0 49 -27 84 -80 106 -36 14 -40 20 -40 49 0 19 9
69 20 112 11 42 17 81 14 86 -10 17 -25 9 -41 -26z m-44 -109 c8 -9 10 -28 5
-50 -6 -33 -9 -36 -39 -36 -82 0 -130 46 -85 82 27 22 102 24 119 4z m30 -197
c75 -26 51 -109 -33 -109 -55 0 -64 16 -50 89 7 35 27 39 83 20z"/>
<path d="M4524 6759 c-7 -12 5 -27 38 -43 18 -9 22 -19 21 -43 -3 -38 -69
-241 -84 -260 -6 -7 -29 -13 -50 -13 -71 0 -46 -25 64 -63 56 -20 110 -39 120
-42 28 -11 21 30 -8 49 -18 12 -25 25 -25 48 0 42 66 252 84 267 8 7 27 11 42
9 19 -2 29 2 31 12 3 12 -16 22 -69 39 -144 47 -157 50 -164 40z"/>
<path d="M4865 6602 c-109 -67 -168 -245 -114 -342 36 -64 135 -103 204 -80
65 22 119 111 100 169 -7 23 -97 71 -140 74 -41 3 -41 -17 -1 -41 63 -37 58
-110 -8 -137 -44 -19 -93 -4 -102 31 -11 42 60 218 104 258 62 55 189 -19 152
-89 -7 -14 -10 -28 -6 -32 9 -10 167 69 163 82 -2 5 -24 9 -49 7 -42 -3 -46
-1 -82 43 -21 25 -51 52 -66 60 -40 21 -118 19 -155 -3z"/>
<path d="M1871 6504 c-120 -67 -212 -134 -209 -152 3 -9 11 -15 19 -13 52 15
59 9 141 -121 88 -140 89 -147 24 -187 -66 -41 -112 -19 -185 90 -48 72 -65
126 -52 163 22 55 -40 38 -63 -18 -12 -29 -23 -37 -83 -56 -44 -15 -80 -35
-102 -57 -32 -32 -33 -36 -28 -88 7 -71 36 -134 88 -190 74 -80 150 -105 216
-71 32 16 79 66 95 101 5 12 30 28 56 38 26 9 103 53 170 97 101 66 122 83
112 95 -9 11 -18 11 -42 3 -29 -10 -34 -9 -57 20 -40 48 -144 240 -138 256 8
19 93 59 114 52 11 -4 41 -53 74 -123 73 -153 92 -177 132 -169 37 7 67 33 67
56 0 25 -9 30 -38 19 -22 -9 -30 -7 -44 11 -14 18 -18 41 -18 111 0 88 0 88
-33 113 -40 31 -99 56 -129 56 -13 0 -52 -16 -87 -36z m-326 -376 l27 -32 -51
-48 c-29 -27 -56 -48 -61 -48 -15 0 -60 73 -60 97 0 29 45 63 85 63 25 0 40
-8 60 -32z m99 -122 c41 -49 44 -73 15 -110 -31 -39 -78 -36 -124 9 -19 20
-35 40 -35 46 0 10 91 99 102 99 4 0 23 -20 42 -44z"/>
<path d="M5237 6444 c-4 -4 5 -20 18 -36 14 -16 25 -35 25 -41 0 -16 -117
-227 -136 -247 -11 -12 -20 -12 -47 -2 -44 16 -67 15 -67 -1 0 -14 198 -147
219 -147 16 0 14 35 -4 50 -24 20 -18 49 28 135 91 168 98 175 152 155 21 -8
27 -7 32 7 4 9 1 19 -5 21 -6 2 -50 28 -98 58 -84 53 -104 61 -117 48z"/>
<path d="M5511 6267 c-8 -11 -6 -18 9 -32 11 -10 20 -25 20 -33 0 -15 -88
-146 -148 -219 -29 -36 -39 -42 -66 -40 -17 1 -31 -3 -31 -9 0 -6 45 -47 100
-92 55 -44 117 -95 137 -112 46 -39 62 -32 42 17 l-15 36 58 56 c74 71 178
133 210 125 18 -5 23 -2 23 14 0 24 -18 32 -68 32 -46 0 -102 -26 -214 -96
-88 -56 -120 -64 -126 -32 -4 21 166 248 186 248 7 0 22 -4 32 -10 13 -7 21
-6 29 3 8 10 -7 27 -62 73 -109 90 -103 86 -116 71z"/>
<path d="M1182 6018 c-6 -7 -12 -26 -14 -42 -2 -23 -15 -38 -56 -66 -108 -75
-141 -126 -127 -198 22 -119 152 -242 254 -242 51 1 111 30 149 75 41 46 52
74 52 128 0 121 -126 173 -212 87 -35 -36 -39 -76 -5 -65 59 18 68 17 93 -6
14 -13 33 -37 41 -52 13 -25 13 -31 -1 -53 -41 -62 -123 -40 -223 61 -67 67
-73 76 -73 115 0 32 6 48 29 70 38 39 71 45 128 26 57 -19 87 -20 102 -3 8 11
2 20 -29 43 -25 18 -50 50 -65 82 -14 28 -27 52 -29 52 -2 0 -8 -6 -14 -12z"/>
<path d="M5885 5930 c-3 -5 -1 -19 5 -30 10 -19 3 -30 -55 -96 -97 -108 -143
-144 -178 -137 -23 4 -28 2 -25 -10 4 -21 228 -271 246 -275 15 -4 14 21 -2
59 -11 26 47 84 133 134 83 49 124 56 141 26 19 -37 9 -67 -75 -216 -47 -82
-84 -157 -83 -165 4 -16 54 -18 288 -10 63 2 127 0 143 -4 18 -6 27 -5 27 3 0
19 -104 181 -115 178 -5 -2 -11 -16 -13 -30 -3 -21 -14 -33 -52 -52 -50 -25
-156 -55 -198 -55 -32 0 -21 17 76 118 74 77 83 83 110 77 18 -4 33 -2 37 5 7
11 -84 155 -126 199 -35 37 -108 27 -251 -37 -119 -53 -148 -57 -148 -18 0 26
177 206 203 206 9 0 26 -6 37 -12 14 -9 23 -9 30 -2 8 8 -9 31 -61 83 -74 72
-83 78 -94 61z"/>
<path d="M842 5593 c-54 -74 -163 -240 -205 -313 -17 -29 -23 -50 -18 -59 14
-22 36 -7 63 41 24 44 41 55 45 28 14 -110 37 -140 108 -140 38 0 52 -5 77
-30 24 -25 29 -37 25 -59 -12 -60 42 -82 63 -26 15 39 3 69 -46 124 -24 27
-44 53 -44 58 0 6 59 101 76 122 5 6 64 -40 74 -58 6 -13 3 -30 -12 -59 -37
-76 3 -102 45 -29 14 23 50 77 81 120 31 43 56 85 56 93 0 21 -34 17 -55 -6
-35 -38 -53 -35 -139 23 -44 31 -98 71 -120 89 l-39 34 22 43 c21 41 22 71 2
71 -5 0 -32 -30 -59 -67z m40 -175 c26 -18 48 -39 48 -47 0 -7 -16 -35 -36
-62 -30 -42 -38 -47 -55 -39 -26 14 -69 80 -69 106 0 24 36 74 53 74 6 0 32
-15 59 -32z"/>
<path d="M6342 5172 c-12 -2 -37 -22 -55 -44 -17 -23 -49 -60 -71 -82 l-38
-41 -18 23 c-10 12 -20 28 -22 34 -2 6 -12 9 -21 5 -23 -9 -21 -49 3 -75 39
-42 60 -39 206 32 75 36 142 66 149 66 21 0 27 -32 9 -51 -28 -31 -232 -131
-253 -124 -27 8 -31 -5 -14 -47 15 -38 36 -49 46 -25 5 13 196 112 237 122 15
3 33 0 45 -9 18 -13 18 -16 5 -29 -8 -7 -67 -38 -130 -67 -133 -63 -139 -66
-151 -98 -9 -24 12 -92 28 -92 18 0 33 25 33 56 0 18 6 36 13 41 6 4 54 9 105
10 51 1 98 5 103 9 18 11 69 127 69 156 0 19 -10 35 -34 53 -28 21 -34 34 -39
78 -4 32 -13 57 -24 65 -30 22 -135 42 -181 34z"/>
<path d="M555 5091 c-11 -5 -28 -17 -37 -28 -21 -22 -148 -289 -148 -309 0
-20 20 -17 45 6 l21 20 70 -24 c116 -39 222 -86 228 -101 3 -8 1 -29 -4 -47
-18 -60 27 -67 47 -7 6 19 27 71 47 117 31 72 33 84 19 89 -10 4 -23 -3 -35
-20 -24 -32 -41 -33 -110 -6 -64 25 -62 23 -49 47 29 54 63 63 158 41 81 -19
132 20 121 92 -4 30 -34 37 -43 10 -9 -28 -35 -26 -94 6 -47 26 -49 27 -74 10
-37 -24 -41 -22 -44 17 -4 75 -55 112 -118 87z m47 -118 c22 -20 24 -73 3
-113 -18 -35 -21 -35 -75 -14 -27 11 -40 22 -40 36 0 19 23 71 42 96 14 17 48
15 70 -5z"/>
<path d="M346 4647 c-13 -13 -32 -48 -43 -78 -25 -64 -63 -236 -55 -243 13
-13 33 -4 44 18 6 14 16 27 23 30 16 6 270 -67 289 -83 11 -9 13 -25 9 -63 -5
-44 -4 -50 11 -47 13 3 27 34 51 119 18 63 38 128 45 144 8 21 8 32 0 40 -13
12 -32 -7 -62 -63 -19 -34 -42 -39 -95 -21 l-29 11 14 71 c26 128 -14 188
-126 188 -42 0 -58 -5 -76 -23z m137 -98 c14 -18 18 -34 14 -63 -8 -59 -17
-63 -94 -40 -67 19 -68 20 -67 52 1 18 10 44 19 58 15 24 22 26 63 21 32 -3
52 -12 65 -28z"/>
<path d="M6576 4654 c-32 -31 -14 -84 29 -84 29 0 45 19 45 52 0 42 -45 62
-74 32z"/>
<path d="M6418 4593 c-22 -5 -35 -50 -21 -72 13 -20 50 -26 69 -11 21 18 18
67 -5 80 -11 5 -21 9 -23 9 -2 -1 -11 -3 -20 -6z"/>
<path d="M6740 4545 c-5 -14 -10 -29 -10 -33 0 -20 -62 -89 -129 -143 -91 -75
-151 -130 -151 -141 0 -9 79 -32 190 -54 98 -19 184 -54 198 -81 20 -40 22
-82 4 -92 -9 -5 -79 -12 -154 -16 -136 -8 -136 -8 -151 16 -8 13 -18 39 -22
56 -7 36 -22 50 -36 36 -8 -8 14 -277 26 -311 10 -28 30 -3 35 43 6 60 12 62
188 71 137 8 142 6 142 -52 0 -62 -21 -72 -158 -80 -134 -8 -179 -22 -199 -64
-7 -15 -12 -99 -15 -215 -3 -162 -1 -190 12 -190 8 0 19 14 23 30 23 78 34 92
74 98 68 12 238 8 251 -5 13 -13 16 -106 4 -125 -5 -7 -84 -38 -176 -68 -93
-30 -177 -62 -188 -71 -17 -16 -17 -18 -1 -37 10 -11 68 -57 128 -102 124 -92
170 -139 180 -185 5 -22 12 -30 23 -28 12 2 22 25 34 78 22 102 23 160 2 160
-9 0 -18 -9 -21 -20 -3 -11 -11 -20 -19 -20 -21 0 -247 99 -263 115 -8 8 -11
18 -7 22 4 4 83 7 175 8 l169 0 6 45 c6 43 25 323 26 383 0 16 -7 30 -16 34
-19 7 -34 -13 -34 -44 0 -43 -33 -53 -177 -53 -131 0 -133 0 -149 25 -12 19
-15 37 -10 72 11 86 60 105 148 58 26 -14 58 -25 71 -25 29 0 107 49 136 86
22 27 23 35 16 129 -8 115 -29 257 -48 330 l-13 50 -140 -3 c-76 -2 -150 0
-164 6 -24 9 -24 9 20 42 56 40 173 98 218 106 30 6 33 9 27 33 -33 134 -57
174 -75 126z"/>
<path d="M312 4188 c-7 -7 -12 -24 -12 -38 0 -48 51 -68 85 -34 18 18 13 63
-8 76 -18 12 -52 9 -65 -4z"/>
<path d="M460 4129 c-19 -34 2 -69 40 -69 36 0 61 40 43 68 -16 27 -69 28 -83
1z"/>
<path d="M196 4051 c-3 -5 -11 -63 -18 -131 -10 -102 -9 -123 2 -130 21 -13
27 -5 33 41 7 53 15 60 36 29 45 -69 57 -71 169 -29 57 22 64 23 89 9 18 -10
31 -29 39 -55 6 -22 17 -40 24 -40 19 0 32 58 22 97 -14 56 -45 69 -180 77
-78 5 -126 12 -137 21 -23 19 -45 65 -45 95 0 24 -22 35 -34 16z"/>
<path d="M170 3595 c0 -125 2 -136 18 -133 10 2 18 14 20 30 5 45 19 49 167
46 l138 -3 11 -40 c7 -24 19 -41 29 -43 15 -3 17 8 19 97 1 56 2 113 2 128 1
39 -31 44 -39 6 -4 -15 -9 -34 -11 -41 -3 -11 -34 -13 -148 -10 -80 1 -148 6
-152 10 -4 4 -10 25 -13 45 -4 25 -12 39 -24 41 -15 3 -17 -9 -17 -133z"/>
<path d="M298 3397 c-60 -17 -97 -42 -108 -73 -19 -50 -7 -202 36 -436 17 -93
35 -113 55 -61 l10 26 137 -7 c75 -4 141 -11 146 -16 10 -10 -50 -50 -138 -91
-77 -36 -121 -45 -142 -29 -28 24 -38 -3 -21 -57 9 -26 21 -67 27 -90 13 -54
35 -55 55 -6 22 51 45 74 155 156 110 81 150 116 150 133 0 12 -71 32 -228 65
-140 28 -182 58 -182 126 0 46 23 53 183 56 l131 2 11 -40 c7 -24 19 -41 29
-43 16 -4 17 3 11 75 -18 211 -35 262 -100 293 -54 26 -155 34 -217 17z m226
-102 c18 -19 32 -83 20 -95 -12 -10 -290 -34 -303 -25 -15 9 -14 100 2 113 17
14 55 19 169 21 75 1 100 -2 112 -14z"/>
<path d="M6503 2891 c-81 -20 -113 -70 -113 -173 0 -52 -6 -77 -36 -138 -43
-88 -84 -194 -84 -215 0 -19 19 -19 40 0 15 14 22 13 71 -7 71 -28 73 -31 55
-67 -25 -47 -48 -55 -106 -36 -99 33 -160 -17 -160 -130 l0 -60 -54 -28 c-67
-35 -92 -76 -83 -137 10 -80 70 -117 153 -97 30 8 31 7 63 -63 24 -50 31 -78
26 -97 -8 -32 -67 -93 -90 -93 -21 0 -215 148 -215 165 0 7 7 29 15 48 8 20
15 41 15 47 0 11 -40 14 -40 3 0 -5 -38 -55 -84 -113 -47 -57 -82 -108 -80
-112 10 -16 41 -7 64 17 13 14 33 25 44 25 25 0 216 -145 216 -163 -1 -6 -7
-23 -15 -37 -19 -33 -19 -70 0 -70 8 0 61 59 119 131 97 122 104 135 103 172
-2 37 1 43 28 54 66 29 80 40 102 72 27 40 31 115 8 148 -21 30 -81 46 -125
33 -52 -15 -55 -14 -82 38 -39 73 -51 117 -38 142 12 23 32 25 94 8 38 -10 48
-9 70 5 34 23 36 22 36 -13 0 -85 73 -126 146 -81 33 20 71 89 125 231 41 105
36 123 -18 80 -14 -11 -33 -20 -42 -20 -33 0 -252 92 -261 111 -13 24 9 80 41
103 29 20 61 20 130 0 98 -29 158 -63 165 -92 17 -69 54 -59 54 15 0 28 12 71
31 115 28 65 30 75 20 110 -31 102 -200 195 -308 169z m94 -114 c6 -7 -23
-127 -34 -138 -9 -9 -97 15 -120 34 -22 17 -15 66 13 94 23 23 31 25 81 20 30
-3 57 -8 60 -10z m109 -39 c51 -39 63 -72 44 -118 -14 -35 -48 -40 -105 -16
l-34 15 20 68 c10 37 19 69 19 70 0 10 32 -1 56 -19z m-144 -449 c29 -11 54
-22 56 -23 7 -8 -22 -64 -46 -88 -64 -68 -126 0 -91 101 13 37 13 37 81 10z
m-342 -311 c28 -46 26 -54 -20 -72 -54 -21 -67 -20 -85 8 -15 22 -15 27 -1 54
27 53 77 57 106 10z m171 -108 c29 -16 24 -54 -12 -84 -37 -32 -72 -33 -99 -4
-32 34 -25 53 28 76 55 25 57 25 83 12z"/>
<path d="M678 2604 c-4 -3 1 -30 9 -60 10 -33 12 -59 7 -64 -9 -8 -238 -110
-248 -110 -8 0 -36 31 -36 41 0 5 19 30 41 54 25 27 39 51 35 60 -5 13 -12 12
-57 -5 -48 -19 -89 -38 -98 -46 -4 -3 128 -315 139 -328 5 -4 42 0 84 10 58
14 76 22 74 33 -2 11 -23 19 -67 26 -52 8 -66 14 -74 33 -15 33 0 43 131 97
110 45 115 46 134 28 11 -9 27 -30 36 -45 15 -26 41 -36 54 -22 4 3 -17 56
-46 117 -29 62 -60 129 -69 150 -15 34 -35 46 -49 31z"/>
<path d="M752 2130 c-30 -30 -31 -30 -146 -30 -109 0 -116 -1 -116 -20 0 -13
7 -20 19 -20 35 0 51 -27 51 -86 0 -30 6 -70 14 -89 34 -80 150 -86 201 -9
l17 27 129 -5 c75 -3 132 -2 135 4 8 13 -15 38 -37 38 -25 0 -47 35 -55 90
-15 100 -46 130 -134 130 -41 0 -53 -5 -78 -30z m144 -85 c19 -19 24 -34 22
-58 -3 -28 -7 -32 -37 -35 -59 -6 -81 5 -81 39 0 30 37 79 60 79 6 0 22 -11
36 -25z m-180 -36 c-4 -23 -11 -50 -17 -60 -11 -22 -58 -26 -77 -7 -13 13 -17
90 -5 101 3 4 29 7 56 7 l50 0 -7 -41z"/>
<path d="M858 1784 c-17 -36 0 -59 42 -59 42 0 59 23 42 59 -9 20 -19 26 -42
26 -23 0 -33 -6 -42 -26z"/>
<path d="M1100 1755 c-11 -13 -10 -20 1 -41 12 -23 11 -27 -6 -37 -32 -19 -57
-25 -106 -26 -68 -1 -99 -50 -99 -156 0 -56 19 -90 92 -167 32 -34 40 -38 87
-38 58 0 138 17 147 32 3 5 10 42 15 81 11 86 23 99 85 90 37 -5 44 -3 44 11
0 9 -9 25 -21 37 -39 39 -92 9 -204 -115 -69 -78 -99 -92 -125 -61 -7 9 -11
17 -9 18 2 2 52 46 110 100 59 53 114 97 123 97 20 0 20 14 0 45 -18 27 -44
34 -44 11 0 -12 -199 -196 -220 -204 -5 -2 -14 6 -20 17 -16 31 -2 49 88 119
84 65 132 115 132 136 0 16 -38 66 -50 66 -4 0 -13 -7 -20 -15z"/>
<path d="M5660 1454 c-119 -107 -131 -140 -34 -99 25 10 41 12 54 5 27 -14
170 -171 170 -186 0 -22 -44 -26 -105 -10 -58 15 -75 14 -75 -5 0 -12 118 -89
138 -89 17 0 50 27 165 136 l88 84 -47 70 c-25 38 -52 70 -60 70 -19 0 -18
-15 6 -79 19 -49 20 -55 5 -77 -8 -13 -22 -24 -31 -24 -20 0 -194 169 -194
189 0 9 9 27 20 41 22 28 26 60 8 59 -7 0 -56 -39 -108 -85z"/>
<path d="M1500 1353 c-263 -95 -289 -103 -337 -103 -28 0 -55 -5 -59 -11 -10
-17 110 -133 130 -126 9 4 16 15 16 26 0 11 19 35 43 54 45 37 166 107 185
107 8 0 3 -24 -13 -67 -31 -82 -58 -127 -104 -176 l-36 -39 60 -55 c71 -65
239 -193 254 -193 21 0 21 21 0 58 l-23 39 67 101 c77 118 92 124 152 68 l37
-35 -28 -50 c-26 -45 -27 -51 -14 -78 8 -15 16 -31 18 -35 2 -4 -13 -4 -32 -1
-43 7 -81 -15 -90 -52 -10 -39 20 -92 78 -135 63 -47 195 -120 219 -120 22 0
22 28 0 52 -16 18 -14 25 43 139 58 119 77 143 111 137 10 -2 19 4 20 12 4 17
-122 100 -151 100 -19 0 -19 -4 -5 -45 10 -27 8 -38 -15 -83 -14 -29 -30 -52
-34 -52 -17 0 -54 34 -63 57 -7 20 -4 42 11 89 27 79 22 89 -67 142 -37 22
-101 68 -140 101 -40 34 -77 61 -82 61 -20 0 -17 -27 5 -55 13 -17 24 -40 24
-53 0 -28 -103 -188 -131 -202 -11 -6 -25 -8 -32 -4 -28 16 -57 49 -57 65 0 9
18 84 40 165 22 82 40 161 40 176 0 28 -9 32 -40 21z m452 -600 l28 -13 -22
-45 c-24 -49 -40 -55 -88 -30 -36 18 -53 49 -45 76 13 39 65 44 127 12z"/>
<path d="M5471 1289 c-23 -22 -25 -57 -6 -130 5 -21 -2 -34 -40 -77 -26 -29
-51 -52 -56 -52 -5 0 -25 25 -45 55 -20 30 -40 55 -44 55 -4 0 -36 -21 -70
-46 -65 -48 -71 -74 -12 -52 41 16 50 7 136 -136 64 -106 66 -110 50 -134 -17
-26 -7 -49 18 -39 28 11 363 279 363 290 0 23 -35 18 -77 -11 -73 -49 -69 -50
-63 20 l7 63 -44 27 c-79 49 -87 64 -76 157 4 32 -13 36 -41 10z m50 -241 c38
-74 12 -188 -42 -188 -11 0 -32 23 -55 61 l-37 61 54 54 c29 30 55 54 56 54 1
0 12 -19 24 -42z"/>
<path d="M5024 960 c-92 -21 -164 -99 -164 -177 0 -81 47 -129 114 -116 39 8
41 20 7 59 -53 60 -39 154 25 170 50 13 110 -83 121 -192 8 -71 -10 -96 -84
-124 -66 -25 -83 -36 -83 -58 0 -12 11 -14 69 -9 98 8 132 25 181 94 52 70 77
92 108 93 32 0 25 31 -10 48 -21 10 -33 10 -49 2 -31 -17 -45 -6 -53 40 -9 55
-50 136 -79 154 -31 19 -66 25 -103 16z"/>
<path d="M2235 843 c13 -46 8 -63 -49 -180 -48 -98 -58 -113 -80 -113 -13 0
-27 -7 -30 -16 -4 -12 16 -25 87 -59 92 -43 294 -115 323 -115 49 0 158 96
231 203 33 48 59 60 70 31 7 -19 -34 -233 -49 -251 -6 -7 -26 -13 -45 -13 -27
0 -34 -4 -31 -18 2 -12 26 -23 86 -39 113 -29 156 -33 160 -12 2 10 -8 21 -27
29 -17 7 -35 18 -41 25 -13 15 34 255 53 267 6 4 22 8 35 8 16 0 22 5 20 16
-2 11 -43 28 -138 55 -161 46 -175 48 -165 17 4 -13 7 -31 6 -41 0 -26 -63
-134 -107 -186 -34 -39 -41 -43 -73 -38 -20 2 -52 11 -71 20 l-35 15 47 20
c56 25 63 37 73 125 8 77 22 97 70 97 36 0 53 23 34 46 -13 16 -72 18 -99 4
-11 -6 -31 -31 -46 -55 -14 -25 -27 -45 -29 -45 -1 0 -22 7 -45 15 -70 25 -72
29 -44 88 13 29 24 57 24 62 0 10 -97 65 -114 65 -4 0 -5 -12 -1 -27z m96
-224 c47 -16 53 -23 39 -50 -25 -48 -63 -79 -96 -79 -58 0 -67 38 -24 108 22
35 31 37 81 21z"/>
<path d="M4656 781 c-77 -34 -118 -59 -137 -82 l-26 -33 -45 17 c-82 32 -162
16 -186 -38 -25 -55 -7 -115 47 -150 17 -11 31 -27 31 -36 0 -8 -16 -62 -35
-119 -19 -57 -35 -108 -35 -112 0 -19 28 -6 49 22 22 30 23 31 94 25 62 -5 77
-3 104 14 71 45 78 119 17 169 l-34 28 30 89 c34 101 53 127 89 123 23 -3 32
-17 74 -122 26 -66 45 -126 42 -135 -3 -9 -18 -25 -35 -34 -30 -18 -39 -40
-20 -52 10 -6 260 103 260 114 0 3 -4 12 -9 20 -7 11 -15 11 -41 2 -18 -6 -39
-11 -45 -11 -7 0 -31 37 -53 83 -74 153 -78 188 -22 219 33 19 41 48 13 47
-10 0 -67 -22 -127 -48z m-201 -156 c27 -26 31 -54 15 -86 -15 -26 -30 -24
-78 11 -45 32 -51 53 -25 82 23 25 59 23 88 -7z m-18 -204 c37 -23 49 -52 33
-81 -9 -18 -19 -21 -58 -18 -55 4 -63 22 -38 82 17 42 20 42 63 17z"/>
<path d="M4040 605 c-26 -31 -46 -35 -90 -20 -24 8 -63 15 -87 15 -38 0 -50
-5 -79 -34 -46 -46 -47 -100 -5 -148 l29 -33 -18 -46 c-9 -26 -31 -71 -49
-102 -17 -30 -31 -61 -31 -70 0 -30 22 -29 50 2 34 37 43 38 105 10 41 -18 53
-20 86 -10 88 27 118 127 58 195 -28 33 -30 38 -20 68 6 19 29 63 50 100 31
53 36 69 26 78 -9 7 -16 6 -25 -5z m-87 -69 c9 -7 17 -21 17 -31 0 -22 -38
-75 -53 -75 -19 0 -67 49 -67 67 0 44 64 68 103 39z m-57 -197 c48 -29 59 -54
39 -85 -26 -40 -115 -28 -115 17 0 24 26 89 36 89 4 0 22 -9 40 -21z"/>
<path d="M3076 590 c-70 -22 -109 -106 -110 -235 -1 -87 24 -135 84 -159 55
-22 128 -20 167 4 55 33 68 70 68 197 0 121 -12 154 -66 180 -35 17 -109 23
-143 13z m112 -62 c21 -18 12 -246 -12 -282 -19 -30 -59 -35 -92 -11 -44 30
-37 259 9 298 23 20 67 17 95 -5z"/>
<path d="M3325 559 c-5 -7 0 -18 12 -28 35 -27 43 -56 43 -151 0 -100 -12
-136 -55 -164 -36 -24 -22 -40 29 -32 29 5 63 1 117 -15 69 -20 80 -21 120 -8
38 12 48 21 69 64 48 96 27 288 -35 329 -32 21 -88 20 -148 -1 -41 -15 -52
-15 -80 -4 -54 22 -64 23 -72 10z m246 -65 c18 -22 25 -182 9 -228 -14 -43
-48 -61 -97 -51 l-33 6 0 129 c0 122 1 130 22 144 29 21 82 20 99 0z"/>
<path d="M4120 416 c-34 -42 20 -91 62 -57 20 16 21 22 10 45 -13 29 -52 36
-72 12z"/>
</g>
</svg>
